<svg width="84" height="25" viewBox="0 0 84 25" fill="none" xmlns="http://www.w3.org/2000/svg">
<rect width="84" height="25" rx="12.5" fill="url(#paint0_linear_3_386)"/>
<path d="M26.768 8.648V10.328H15.288V8.648H20.37C20.23 8.018 19.95 7.094 19.698 6.408L21.364 5.988C21.658 6.688 21.966 7.612 22.12 8.214L20.622 8.648H26.768ZM19.978 16.208L18.186 16.67C18.018 15.172 17.5 12.876 17.024 11.14L18.704 10.734C19.236 12.498 19.74 14.71 19.978 16.208ZM23.324 17.006H27.356V18.7H14.658V17.006H21.518C22.218 15.298 22.96 12.75 23.324 10.776L25.214 11.14C24.682 13.17 23.954 15.382 23.324 17.006ZM33.53 8.326H31.01V9.516H33.53V8.326ZM31.01 12.274H33.53V11H31.01V12.274ZM32.214 14.808L33.656 14.108C34.356 15.256 35.21 16.782 35.588 17.762L34.034 18.588C33.922 18.238 33.754 17.818 33.544 17.384C30.254 18.42 29.694 18.644 29.302 18.91C29.204 18.434 28.924 17.622 28.658 17.216C28.966 17.062 29.302 16.782 29.302 16.236V6.842H35.196V13.758H31.01V16.516L32.872 15.984C32.648 15.578 32.424 15.172 32.214 14.808ZM40.992 6.94V14.99C40.992 15.746 40.866 16.18 40.39 16.46C39.942 16.726 39.298 16.74 38.402 16.74C38.346 16.292 38.15 15.606 37.94 15.172C38.444 15.2 38.962 15.2 39.116 15.186C39.284 15.186 39.354 15.13 39.354 14.948V8.466H37.66V19.218H35.98V6.94H40.992ZM55.244 8.858H49.602V11.042L49.882 10.72C51.38 11.504 53.606 12.722 54.67 13.604L53.438 15.13C52.626 14.402 51.016 13.366 49.602 12.54V19.148H47.81V8.858H42.77V7.178H55.244V8.858ZM69.146 8.186L67.858 9.04C67.564 8.48 66.864 7.64 66.29 7.038L67.494 6.296C68.082 6.842 68.81 7.654 69.146 8.186ZM67.452 11.07L68.936 11.49C68.432 13.268 67.746 14.85 66.864 16.236C67.144 17.034 67.48 17.496 67.858 17.496C68.11 17.496 68.25 16.922 68.32 15.466C68.642 15.83 69.188 16.18 69.566 16.334C69.342 18.504 68.866 19.078 67.704 19.078C66.892 19.078 66.276 18.56 65.786 17.692C65.268 18.294 64.722 18.826 64.092 19.316C63.854 18.952 63.378 18.448 62.986 18.168C63.798 17.594 64.526 16.88 65.156 16.04C64.736 14.542 64.512 12.596 64.386 10.468H59.696L60.802 10.762C60.69 11.014 60.564 11.266 60.438 11.532H63.966V12.82H59.724C59.5 13.226 59.248 13.604 58.996 13.954H60.326V13.128H61.866V13.954H63.798L63.784 15.312H61.866V16.11L64.036 15.956L64.022 17.286C63.322 17.356 62.58 17.426 61.866 17.496V19.162H60.326V17.622C59.08 17.734 57.904 17.846 56.938 17.93L56.812 16.446C57.75 16.39 58.982 16.306 60.326 16.208V15.312H58.66C58.114 15.312 57.624 15.396 57.498 15.536C57.428 15.228 57.176 14.486 56.994 14.08C57.246 14.01 57.484 13.758 57.708 13.394C57.778 13.296 57.918 13.086 58.058 12.82H56.868V11.532H58.716C58.87 11.182 59.01 10.832 59.122 10.468H56.672V9.18H59.71V8.354H57.372V7.094H59.71V6.156H61.306V7.094H63.588V8.354H61.306V9.18H64.33C64.302 8.186 64.288 7.178 64.288 6.17H65.926C65.898 7.192 65.912 8.2 65.94 9.18H69.37V10.468H65.982C66.066 11.798 66.192 13.03 66.36 14.066C66.808 13.142 67.172 12.134 67.452 11.07Z" fill="#FDD100"/>
<defs>
<linearGradient id="paint0_linear_3_386" x1="42" y1="0" x2="42" y2="25" gradientUnits="userSpaceOnUse">
<stop stop-color="#361A41"/>
<stop offset="1" stop-color="#C10B82"/>
</linearGradient>
</defs>
</svg>
