<svg width="98" height="24" viewBox="0 0 98 24" fill="none" xmlns="http://www.w3.org/2000/svg">
<g clip-path="url(#clip0_15_8)">
<path d="M12.25 0C5.48494 0 0 5.373 0 12C0 18.627 5.48494 24 12.25 24C19.0151 24 24.5 18.627 24.5 12C24.5 5.373 19.0151 0 12.25 0ZM18.2668 8.221L16.2558 17.501C16.1077 18.159 15.7076 18.319 15.1492 18.009L12.0867 15.799L10.6105 17.193C10.5382 17.2847 10.4454 17.359 10.3392 17.4101C10.2331 17.4613 10.1164 17.4879 9.99804 17.488H9.99294L10.2104 14.434L15.8862 9.412C16.1312 9.199 15.8311 9.078 15.5054 9.291L8.49333 13.617L5.47167 12.693C4.81833 12.49 4.79996 12.053 5.60948 11.739L17.4164 7.281C17.9656 7.085 18.4434 7.409 18.2658 8.222L18.2668 8.221Z" fill="white"/>
</g>
<path d="M43.6694 7.296L42.6614 7.824C42.3894 7.136 41.7334 6.096 41.1094 5.344L42.0534 4.88C42.6934 5.6 43.3814 6.608 43.6694 7.296ZM36.0694 12.928V15.536C36.7894 15.424 37.5734 15.296 38.3734 15.168V12.928H36.0694ZM38.3734 6.384H36.0694V8.624H38.3734V6.384ZM36.0694 9.632V11.92H38.3734V9.632H36.0694ZM40.7414 15.824L39.4134 16.048V19.232H38.3734V16.24L34.2454 16.944L33.9894 15.824C34.3094 15.776 34.6454 15.744 35.0134 15.696V6.384H34.1334V5.296H40.1174V6.384H39.4134V14.992L40.6614 14.8L40.7414 15.824ZM48.5494 13.008H44.5974C45.3014 15.392 46.7094 17.328 48.7254 18.224C48.4534 18.464 48.1174 18.896 47.9414 19.216C46.2134 18.336 44.9654 16.768 44.1334 14.784C43.6054 16.352 42.5334 17.984 40.5014 19.376C40.3094 19.104 39.9254 18.736 39.6214 18.528C42.2134 16.864 43.0774 14.816 43.3494 13.008H40.1814V11.92H43.4614C43.4934 11.568 43.4934 11.248 43.4934 10.928V9.024H40.5814V7.92H44.5334C45.1414 7.088 45.8614 5.808 46.2614 4.896L47.4454 5.232C46.9334 6.144 46.3414 7.136 45.7974 7.92H47.9574V9.024H44.6774V10.944C44.6774 11.264 44.6774 11.568 44.6454 11.92H48.5494V13.008ZM53.9414 14.4L55.1254 14.816C54.1654 16.096 52.7574 17.424 51.5574 18.272C51.3174 18.048 50.8374 17.648 50.5174 17.488C51.7974 16.72 53.1094 15.536 53.9414 14.4ZM62.0374 13.088L58.0854 13.376V17.648C58.0854 18.32 57.9414 18.64 57.4134 18.832C56.9014 19.04 56.1014 19.04 54.9334 19.04C54.8854 18.688 54.6774 18.208 54.4854 17.872C55.4454 17.904 56.3094 17.904 56.5654 17.904C56.8374 17.888 56.8854 17.824 56.8854 17.632V13.472C52.5174 13.792 51.8934 13.888 51.4454 14.064C51.3974 13.824 51.2214 13.28 51.0774 12.96C51.6054 12.896 52.3094 12.592 53.3014 12.096C53.8454 11.84 55.0134 11.2 56.3894 10.368C53.1414 10.56 52.6294 10.624 52.3254 10.752C52.2614 10.528 52.1014 9.984 51.9734 9.68C52.3094 9.648 52.6774 9.408 53.1414 9.04C53.5574 8.784 54.7254 7.84 55.7654 6.752C54.2774 6.88 52.7894 6.976 51.3974 7.04C51.3654 6.736 51.2214 6.272 51.0934 6C54.9494 5.792 59.5734 5.376 62.1334 4.736L62.9814 5.712C61.4614 6.08 59.4934 6.384 57.4134 6.592C56.3734 7.68 55.2054 8.72 54.0694 9.536L57.9414 9.344C58.8054 8.768 59.6854 8.128 60.4854 7.472L61.3974 8.24C59.0614 10.016 56.6294 11.488 54.2294 12.64L61.2214 12.192C60.8054 11.728 60.3574 11.296 59.9414 10.896L60.8374 10.432C62.0854 11.52 63.4454 12.992 64.1014 13.952L63.1574 14.528C62.8854 14.128 62.4854 13.616 62.0374 13.088ZM59.4934 14.928L60.4374 14.32C61.7494 15.28 63.3974 16.688 64.2454 17.584L63.2374 18.304C62.4534 17.408 60.8214 15.952 59.4934 14.928ZM71.6854 10.944L72.5334 11.344C71.7174 12.304 70.4534 13.376 69.4454 14.064C69.3654 13.872 69.0774 13.344 68.9014 13.136C69.8454 12.544 70.9494 11.744 71.6854 10.944ZM75.2214 14.448H71.4134V16.304H75.2214V14.448ZM76.2134 17.184H71.4134V17.92H70.3734V13.552H76.2134V17.184ZM78.1014 13.168L77.3974 14C76.7094 13.344 75.3334 12.288 74.2774 11.536L74.9494 10.832C75.9894 11.536 77.3814 12.544 78.1014 13.168ZM79.4454 9.664V17.904C79.4454 18.528 79.2854 18.8 78.8214 18.976C78.3414 19.12 77.5414 19.136 76.1814 19.136C76.1174 18.848 75.9734 18.48 75.8134 18.224C76.8054 18.256 77.7334 18.24 77.9894 18.224C78.2454 18.208 78.3414 18.144 78.3414 17.888V10.656H68.4214V19.2H67.2854V9.664H74.6614C75.0934 9.008 75.5734 8.128 75.8454 7.488L77.1094 7.76C76.7094 8.416 76.2934 9.104 75.8774 9.664H79.4454ZM69.7494 7.744L70.8214 7.392C71.1574 7.936 71.6214 8.704 71.8294 9.168L70.7414 9.6C70.5334 9.136 70.1014 8.336 69.7494 7.744ZM74.3094 6.336H80.3254V7.36H66.3734V6.336H73.0134C72.8374 5.856 72.6134 5.296 72.3894 4.864L73.5414 4.56C73.8134 5.12 74.1334 5.808 74.3094 6.336ZM89.3974 13.488H95.1894C95.1894 13.488 95.1734 13.856 95.1254 14.016C94.7894 16.912 94.4214 18.112 93.8774 18.608C93.5254 18.928 93.1734 19.008 92.5814 19.04C92.1174 19.056 91.1574 19.056 90.2134 18.992C90.1974 18.672 90.0534 18.24 89.8454 17.936C90.8534 18.032 91.8614 18.048 92.2614 18.048C92.5814 18.048 92.7734 18.032 92.9494 17.904C93.3174 17.6 93.6374 16.624 93.9094 14.528H89.0614C88.0534 17.104 86.0854 18.448 82.9494 19.2C82.8214 18.928 82.5174 18.432 82.2934 18.192C85.1094 17.648 86.8854 16.576 87.7974 14.528H83.3974V13.488H88.1654C88.2934 13.008 88.4054 12.48 88.4694 11.904L89.7014 12C89.6214 12.528 89.5094 13.04 89.3974 13.488ZM86.7574 7.28L86.5174 7.504C87.2214 8.384 88.2294 9.072 89.4614 9.6C90.9654 8.992 92.2774 8.224 93.2214 7.28H86.7574ZM94.3414 6.192L95.0614 6.688C94.1014 8.128 92.6134 9.232 90.8534 10.096C92.5174 10.608 94.5014 10.896 96.6294 11.024C96.3894 11.296 96.1174 11.76 95.9734 12.096C93.5254 11.888 91.3014 11.456 89.4454 10.688C87.3174 11.52 84.9174 12 82.5974 12.288C82.5174 11.984 82.3094 11.52 82.1174 11.248C84.1494 11.056 86.2454 10.672 88.1334 10.064C87.2054 9.552 86.4054 8.928 85.7494 8.176C85.1094 8.704 84.3734 9.184 83.5574 9.648C83.3974 9.376 83.0774 8.96 82.8214 8.768C85.0614 7.632 86.6454 5.984 87.4614 4.592L88.7094 4.848C88.4054 5.312 88.0694 5.792 87.6854 6.256H94.1334L94.3414 6.192Z" fill="white"/>
<defs>
<clipPath id="clip0_15_8">
<rect width="24.5" height="24" fill="white"/>
</clipPath>
</defs>
</svg>
