<svg width="98" height="24" viewBox="0 0 98 24" fill="none" xmlns="http://www.w3.org/2000/svg">
<g clip-path="url(#clip0_15_3)">
<path d="M12.25 0C5.48494 0 0 5.373 0 12C0 18.627 5.48494 24 12.25 24C19.0151 24 24.5 18.627 24.5 12C24.5 5.373 19.0151 0 12.25 0ZM18.2668 8.221L16.2558 17.501C16.1077 18.159 15.7076 18.319 15.1492 18.009L12.0867 15.799L10.6105 17.193C10.5382 17.2847 10.4454 17.359 10.3392 17.4101C10.2331 17.4613 10.1164 17.4879 9.99804 17.488H9.99294L10.2104 14.434L15.8862 9.412C16.1312 9.199 15.8311 9.078 15.5054 9.291L8.49333 13.617L5.47167 12.693C4.81833 12.49 4.79996 12.053 5.60948 11.739L17.4164 7.281C17.9656 7.085 18.4434 7.409 18.2658 8.222L18.2668 8.221Z" fill="white"/>
</g>
<path d="M43.6694 7.296L42.6614 7.824C42.3894 7.136 41.7334 6.096 41.1094 5.344L42.0534 4.88C42.6934 5.6 43.3814 6.608 43.6694 7.296ZM36.0694 12.928V15.536C36.7894 15.424 37.5734 15.296 38.3734 15.168V12.928H36.0694ZM38.3734 6.384H36.0694V8.624H38.3734V6.384ZM36.0694 9.632V11.92H38.3734V9.632H36.0694ZM40.7414 15.824L39.4134 16.048V19.232H38.3734V16.24L34.2454 16.944L33.9894 15.824C34.3094 15.776 34.6454 15.744 35.0134 15.696V6.384H34.1334V5.296H40.1174V6.384H39.4134V14.992L40.6614 14.8L40.7414 15.824ZM48.5494 13.008H44.5974C45.3014 15.392 46.7094 17.328 48.7254 18.224C48.4534 18.464 48.1174 18.896 47.9414 19.216C46.2134 18.336 44.9654 16.768 44.1334 14.784C43.6054 16.352 42.5334 17.984 40.5014 19.376C40.3094 19.104 39.9254 18.736 39.6214 18.528C42.2134 16.864 43.0774 14.816 43.3494 13.008H40.1814V11.92H43.4614C43.4934 11.568 43.4934 11.248 43.4934 10.928V9.024H40.5814V7.92H44.5334C45.1414 7.088 45.8614 5.808 46.2614 4.896L47.4454 5.232C46.9334 6.144 46.3414 7.136 45.7974 7.92H47.9574V9.024H44.6774V10.944C44.6774 11.264 44.6774 11.568 44.6454 11.92H48.5494V13.008ZM53.9414 14.4L55.1254 14.816C54.1654 16.096 52.7574 17.424 51.5574 18.272C51.3174 18.048 50.8374 17.648 50.5174 17.488C51.7974 16.72 53.1094 15.536 53.9414 14.4ZM62.0374 13.088L58.0854 13.376V17.648C58.0854 18.32 57.9414 18.64 57.4134 18.832C56.9014 19.04 56.1014 19.04 54.9334 19.04C54.8854 18.688 54.6774 18.208 54.4854 17.872C55.4454 17.904 56.3094 17.904 56.5654 17.904C56.8374 17.888 56.8854 17.824 56.8854 17.632V13.472C52.5174 13.792 51.8934 13.888 51.4454 14.064C51.3974 13.824 51.2214 13.28 51.0774 12.96C51.6054 12.896 52.3094 12.592 53.3014 12.096C53.8454 11.84 55.0134 11.2 56.3894 10.368C53.1414 10.56 52.6294 10.624 52.3254 10.752C52.2614 10.528 52.1014 9.984 51.9734 9.68C52.3094 9.648 52.6774 9.408 53.1414 9.04C53.5574 8.784 54.7254 7.84 55.7654 6.752C54.2774 6.88 52.7894 6.976 51.3974 7.04C51.3654 6.736 51.2214 6.272 51.0934 6C54.9494 5.792 59.5734 5.376 62.1334 4.736L62.9814 5.712C61.4614 6.08 59.4934 6.384 57.4134 6.592C56.3734 7.68 55.2054 8.72 54.0694 9.536L57.9414 9.344C58.8054 8.768 59.6854 8.128 60.4854 7.472L61.3974 8.24C59.0614 10.016 56.6294 11.488 54.2294 12.64L61.2214 12.192C60.8054 11.728 60.3574 11.296 59.9414 10.896L60.8374 10.432C62.0854 11.52 63.4454 12.992 64.1014 13.952L63.1574 14.528C62.8854 14.128 62.4854 13.616 62.0374 13.088ZM59.4934 14.928L60.4374 14.32C61.7494 15.28 63.3974 16.688 64.2454 17.584L63.2374 18.304C62.4534 17.408 60.8214 15.952 59.4934 14.928ZM77.3974 15.296H69.7814V17.44H77.3974V15.296ZM76.8534 9.68H69.7814V11.664H76.8534V9.68ZM69.7814 12.704V14.24H78.5974V19.136H77.3974V18.512H69.7814V19.216H68.5974V8.64H78.0214V12.704H69.7814ZM74.3894 6.144H80.0694V8.976H78.8374V7.264H67.7654V8.976H66.5974V6.144H73.0454C72.9014 5.712 72.7094 5.2 72.5014 4.8L73.6854 4.528C73.9574 5.024 74.2294 5.664 74.3894 6.144ZM96.2454 8.544H88.1174C88.0694 9.376 88.0054 10.224 87.8934 11.072H94.6934C94.6934 11.072 94.6774 11.472 94.6454 11.648C94.3414 16.144 94.0214 17.872 93.3974 18.496C93.0134 18.896 92.6454 19.008 92.0214 19.056C91.4614 19.088 90.4214 19.072 89.3494 18.992C89.3174 18.64 89.1574 18.16 88.9334 17.84C90.0694 17.936 91.1894 17.952 91.6054 17.952C91.9734 17.952 92.1814 17.92 92.3574 17.776C92.8374 17.36 93.1414 15.824 93.4134 12.224H87.7174C87.2054 15.04 86.0054 17.68 82.9974 19.28C82.8054 18.96 82.4374 18.544 82.1334 18.32C86.2134 16.288 86.6294 12.192 86.8054 8.544H82.4854V7.376H89.4774C89.2694 6.736 88.8054 5.712 88.3894 4.976L89.5254 4.528C89.9574 5.28 90.4534 6.24 90.6774 6.896L89.5734 7.376H96.2454V8.544Z" fill="white"/>
<defs>
<clipPath id="clip0_15_3">
<rect width="24.5" height="24" fill="white"/>
</clipPath>
</defs>
</svg>
