<svg width="408" height="60" viewBox="0 0 408 60" fill="none" xmlns="http://www.w3.org/2000/svg">
<path d="M42.928 15.176V20.984H0.976V15.176H17.872C17.68 14.36 17.44 13.496 17.2 12.776L24.448 11.576C24.928 12.632 25.36 13.928 25.648 15.176H42.928ZM13.216 27.32V29.096H30.688V27.32H13.216ZM38.128 33.752H6.256V22.664H38.128V33.752ZM43.84 43.304V49.16H25.6V51.368C25.6 54.632 24.64 56.024 22 56.84C19.408 57.56 16 57.56 11.872 57.56C11.44 55.784 10.432 53.432 9.52 51.848C11.968 51.992 16.048 51.992 16.864 51.992C17.824 51.944 18.16 51.752 18.16 51.032V49.16H0.16V43.304H18.16V41.672H18.208L18.16 41.624C19.456 41.288 20.848 40.904 22.192 40.472H4.96V35.144H31.36V35.096H33.28L34.816 34.808L39.136 38.696C35.92 40.376 32.32 41.96 28.384 43.304H43.84ZM56.656 12.152L63.232 14.216C62.032 17.384 60.544 20.696 58.864 23.864V57.512H52.24V34.184C51.472 35.144 50.656 36.056 49.888 36.92C49.264 35.192 47.392 31.304 46.24 29.576C50.368 25.4 54.352 18.776 56.656 12.152ZM65.632 33.992L72.4 35.384C71.104 41.384 68.704 47.528 66.112 51.368C64.816 50.264 61.84 48.44 60.208 47.624C62.752 44.408 64.672 39.08 65.632 33.992ZM85.504 26.648H80.512V49.976C80.512 53.144 80.032 55.064 78.064 56.216C76.144 57.32 73.696 57.608 70.528 57.608C70.24 55.592 69.184 52.472 68.176 50.6C70.048 50.648 72.064 50.648 72.736 50.648C73.36 50.648 73.6 50.504 73.6 49.88V26.648H68.992C67.6 29.288 66.064 31.64 64.528 33.512C63.28 32.264 60.496 29.96 58.912 28.904C62.608 25.016 65.632 18.536 67.264 12.104L74.128 13.688C73.504 15.896 72.784 18.104 71.92 20.216H86.896L87.952 20.024L92.896 20.888C92.368 25.016 91.504 29.672 90.832 32.696L84.88 31.64C85.072 30.296 85.312 28.52 85.504 26.648ZM81.232 35.528L87.472 33.416C89.824 38.312 91.696 44.6 92.32 48.872L85.6 51.224C85.216 47 83.392 40.424 81.232 35.528ZM109.984 30.248H104.656V33.896V35.048H109.984V30.248ZM116.704 41.24H104.416C103.984 47.192 102.832 53.624 100.144 57.944C98.944 56.648 95.968 54.296 94.432 53.48C97.552 48.152 97.744 40.136 97.744 33.896V16.04C103.504 15.368 109.744 14.216 114.112 12.824L118.48 18.776C114.256 19.976 109.36 20.792 104.656 21.32V24.056H116.704V41.24ZM140.848 27.944V34.664H137.104V57.176H130.192V34.664H126.496C126.016 42.488 124 52.04 117.184 57.752C116.08 56.408 113.2 53.912 111.664 53C118.864 46.904 119.44 37.688 119.44 30.584V16.136C125.296 15.416 131.488 14.072 135.856 12.536L140.368 18.632C136.144 19.928 131.248 20.84 126.592 21.464V27.944H140.848ZM172.576 33.464V35.384H179.68V33.464H172.576ZM172.576 26.6V28.472H179.68V26.6H172.576ZM172.576 19.736V21.56H179.68V19.736H172.576ZM161.248 42.872L166 38.984L166.24 39.176V14.312H186.352V40.76H168.064C169.744 42.248 171.52 43.88 172.528 45.08L167.488 49.4C166.192 47.672 163.312 44.84 161.248 42.872ZM151.552 41.384V33.848C150.256 35.912 148.816 37.736 147.328 39.128C146.32 37.64 144.256 35.384 142.864 34.28C145.84 32.072 148.672 28.28 150.544 24.488H144.112V18.632H151.552V12.008H158.176V18.632H164.464V24.488H158.176V25.736C160.048 26.84 164.464 29.864 165.616 30.728L161.968 36.296C161.008 35.192 159.616 33.8 158.176 32.456V41.384H151.552ZM149.44 54.824L143.008 51.704C144.688 49.064 146.224 45.224 147.04 41.72L153.28 44.12C152.368 47.672 151.024 51.992 149.44 54.824ZM189.376 50.744L182.848 54.104C182.128 52.52 180.832 50.264 179.488 48.056C178.624 54.872 176.704 56.6 171.04 56.6H163.072C155.776 56.6 153.952 54.68 153.952 48.92V42.92H160.864V48.824C160.864 50.312 161.296 50.456 163.84 50.456H170.512C172.672 50.456 173.008 49.784 173.296 44.984C174.592 45.944 177.184 46.856 179.008 47.336L177.04 44.072L183.136 41.192C185.104 44.12 187.984 48.2 189.376 50.744ZM234.569 34.904V32.888H218.681V34.904H234.569ZM218.681 42.728H234.569V40.664H218.681V42.728ZM246.617 24.056H220.985C220.505 25.016 220.025 25.928 219.545 26.84H241.385V50.36C241.385 53.576 240.809 55.448 238.649 56.504C236.537 57.56 233.753 57.656 229.961 57.656C229.721 55.736 228.809 52.76 227.897 50.936C229.961 51.08 232.745 51.08 233.513 51.08C234.281 51.08 234.569 50.84 234.569 50.216V48.488H218.681V57.512H211.769V37.736C210.137 39.464 208.361 41 206.393 42.344C205.337 40.808 203.129 38.264 201.737 36.968C206.537 33.896 210.281 29.192 213.065 24.056H203.369V17.528H216.041C216.713 15.656 217.289 13.736 217.769 11.912L225.017 13.544C224.585 14.888 224.153 16.184 223.673 17.528H246.617V24.056ZM287.417 26.36L293.609 30.68C290.921 33.704 287.753 36.872 285.065 39.32C288.185 42.488 291.833 45.128 295.961 46.952C294.281 48.392 291.977 51.272 290.825 53.24C284.825 50.024 280.121 45.128 276.425 39.176V49.256C276.425 53.096 275.705 55.016 273.497 56.168C271.289 57.368 268.025 57.608 263.705 57.56C263.417 55.544 262.361 52.28 261.353 50.216C264.041 50.36 267.017 50.36 267.977 50.36C268.889 50.36 269.225 50.072 269.225 49.208V43.592C264.137 47.048 258.857 50.36 254.393 53.096L249.881 46.712C254.441 44.504 262.169 40.184 269.225 36.152V25.544H251.561V18.776H269.225V12.008H276.425V18.776H283.721C282.089 17.768 280.265 16.808 278.729 16.04L282.809 11.624C285.641 12.872 289.721 14.888 291.785 16.424L289.673 18.776H294.569V25.544H276.425V26.072C277.625 28.952 279.113 31.736 280.937 34.328C283.289 31.88 285.785 28.952 287.417 26.36ZM265.913 35.336L260.201 39.56C258.857 36.968 255.545 33.128 252.761 30.392L258.041 26.648C260.825 29.144 264.377 32.744 265.913 35.336ZM326.777 19.592L322.169 25.352C319.481 23.048 314.729 19.4 311.081 16.904L315.593 11.816C319.337 14.12 324.041 17.528 326.777 19.592ZM302.537 24.104L309.257 25.784C308.249 31.688 306.809 38.408 304.601 42.488L297.737 40.04C299.993 35.864 301.721 30.008 302.537 24.104ZM344.057 42.104L337.289 45.56C336.329 41.768 333.593 36.008 331.001 31.64C327.161 36.584 322.745 41.336 317.705 45.512V47.048C317.705 49.64 317.993 49.928 320.393 49.928H326.537C328.841 49.928 329.225 48.68 329.609 42.296C331.241 43.496 334.409 44.792 336.425 45.224C335.561 53.96 333.545 56.888 327.209 56.888H319.433C313.625 56.888 311.225 55.448 310.505 50.888C307.961 52.616 305.273 54.152 302.489 55.544C301.433 53.912 299.369 51.368 297.929 49.976C302.297 47.96 306.425 45.416 310.265 42.488V22.28H317.705V36.008C324.377 29.384 329.657 21.848 332.969 14.744L340.025 17.528C337.673 22.04 334.841 26.552 331.577 30.872L337.097 28.232C339.977 32.6 342.809 38.216 344.057 42.104ZM363.081 43.336V28.936H358.601V43.336H363.081ZM380.873 27.976V30.6H384.457V27.976H380.873ZM380.873 19.08V21.64H384.457V19.08H380.873ZM396.937 19.08H393.289V21.64H396.937V19.08ZM396.937 30.6V27.976H393.289V30.6H396.937ZM405.449 37.448H392.969C392.457 41.032 391.433 44.424 389.705 47.496C394.377 49.544 400.393 50.696 407.881 51.144C406.025 53.064 403.721 56.776 402.633 59.208C394.953 58.312 388.937 56.648 384.073 53.96C381.513 56.008 378.249 57.736 374.217 59.08C373.129 57.16 370.441 53.576 368.649 51.848C369.353 51.72 369.993 51.592 370.633 51.4H358.601V56.008H350.857V38.344C350.281 39.112 349.705 39.88 349.065 40.584C348.745 38.024 347.209 31.752 345.993 29C349.705 24.008 352.201 16.904 353.737 9.16H346.825V0.775997H370.505V9.16H362.505C361.673 13.064 360.649 17.032 359.433 20.872H370.697V51.4C373.385 50.696 375.561 49.8 377.353 48.712C375.113 46.28 373.193 43.4 371.529 40.072L379.465 38.408C380.361 40.008 381.385 41.48 382.665 42.76C383.433 41.096 383.881 39.304 384.137 37.448H372.745V12.232H384.457V9.032H371.913V0.775997H406.793V9.032H393.289V12.232H405.449V37.448Z" fill="white"/>
</svg>
