<svg width="104" height="33" viewBox="0 0 104 33" fill="none" xmlns="http://www.w3.org/2000/svg">
<rect width="104" height="33" rx="16.5" fill="url(#paint0_linear_35_12)"/>
<path d="M25.078 23.204V13.502H26.73V23.204H25.078ZM25.176 11.038L26.38 10.226C27.066 10.94 28.046 11.948 28.536 12.564L27.248 13.474C26.814 12.858 25.862 11.794 25.176 11.038ZM31.952 15.924H29.824V18.262H31.952V15.924ZM33.562 19.746H29.824V20.53H28.326V14.44H33.562V19.746ZM36.936 10.828V21.202C36.936 22.126 36.74 22.574 36.194 22.84C35.648 23.106 34.822 23.148 33.646 23.134C33.576 22.658 33.338 21.93 33.128 21.496C33.842 21.538 34.696 21.538 34.934 21.524C35.186 21.524 35.27 21.44 35.27 21.188V12.382H28.858V10.828H36.936ZM51.538 20.572L50.558 21.594C50.068 21.062 48.99 20.208 48.206 19.62L49.116 18.724C49.9 19.256 50.978 20.068 51.538 20.572ZM47.492 14.776H48.864C48.78 18.556 48.416 20.53 45.126 21.552C44.986 21.216 44.65 20.712 44.384 20.46C47.254 19.634 47.436 18.094 47.492 14.776ZM45.378 13.026H46.946C47.072 12.718 47.198 12.368 47.296 12.018H44.93V10.702H51.482V12.018H48.92C48.766 12.382 48.598 12.718 48.444 13.026H50.95V18.794H49.536V14.216H46.722V18.878H45.378V13.026ZM42.83 12.452V11.794H40.772V12.452H42.83ZM42.83 14.188V13.502H40.772V14.188H42.83ZM44.37 10.688V15.308H39.288V10.688H44.37ZM42.662 19.662V21.314C43.488 21.566 44.524 21.622 45.756 21.622C46.68 21.622 50.474 21.622 51.622 21.566C51.398 21.888 51.16 22.518 51.076 22.938H45.742C43.152 22.938 41.43 22.672 40.31 21.188C40.128 21.986 39.862 22.658 39.47 23.218C39.232 22.994 38.644 22.602 38.322 22.434C39.134 21.384 39.316 19.718 39.344 17.814L40.702 17.898C40.674 18.472 40.646 19.018 40.59 19.522C40.772 19.928 40.996 20.25 41.262 20.516V17.31H38.644V16.106H44.972V17.31H42.662V18.458H44.692V19.662H42.662ZM62.22 15.784H58.09C58.58 17.016 59.266 18.08 60.162 18.976C61.044 18.094 61.758 17.03 62.22 15.784ZM63.256 14.104L64.404 14.566C63.83 16.904 62.85 18.696 61.506 20.068C62.556 20.768 63.83 21.286 65.314 21.622C64.95 21.958 64.502 22.644 64.264 23.078C62.64 22.658 61.31 22.028 60.19 21.188C59.014 22.042 57.642 22.686 56.13 23.148C55.934 22.686 55.514 22.014 55.178 21.636C56.55 21.3 57.824 20.754 58.902 20.012C57.852 18.878 57.054 17.464 56.452 15.784H55.78C55.738 18.108 55.402 21.244 54.03 23.26C53.722 22.952 52.98 22.434 52.56 22.252C53.96 20.208 54.072 17.198 54.072 15.056V11.29C57.39 11.192 61.1 10.856 63.256 10.212L64.628 11.556C62.178 12.284 58.86 12.62 55.794 12.746V14.174H62.948L63.256 14.104ZM69.85 13.516H68.618C68.282 14.636 67.876 15.644 67.4 16.414C67.162 16.162 66.56 15.616 66.238 15.378C67.036 14.118 67.554 12.13 67.848 10.156L69.332 10.436C69.234 10.996 69.122 11.542 68.996 12.102H70.424L70.662 12.032L71.684 12.34C71.348 13.418 70.872 14.636 70.452 15.406L69.248 15.014C69.444 14.622 69.654 14.076 69.85 13.516ZM69.556 20.194L70.746 19.312C70.844 19.746 71.04 20.348 71.18 20.67C68.73 22.56 68.296 22.924 68.058 23.232C67.904 22.938 67.47 22.434 67.218 22.21C67.54 21.944 68.1 21.342 68.1 20.558V15.28H69.556V20.194ZM75.954 17.982V19.368C75.954 20.992 75.156 22.518 71.67 23.302C71.516 22.952 71.068 22.294 70.788 22.014C73.98 21.37 74.428 20.39 74.428 19.312V17.982H75.954ZM78.656 20.726H77.074V17.576H73.21V20.726H71.698V16.302H78.656V20.726ZM75.548 21.636L76.262 20.614C77.284 20.978 78.656 21.608 79.342 22.098L78.586 23.232C77.928 22.742 76.584 22.056 75.548 21.636ZM73.168 12.844H74.498V12.102H73.168V12.844ZM77.2 12.102H75.982V12.844H77.2V12.102ZM75.982 14.58H79.524V15.826H71.124V14.58H74.498V13.922H71.824V11.038H74.498V10.156H75.982V11.038H78.628V13.922H75.982V14.58Z" fill="white"/>
<defs>
<linearGradient id="paint0_linear_35_12" x1="52" y1="0" x2="52" y2="33" gradientUnits="userSpaceOnUse">
<stop stop-color="#361A41"/>
<stop offset="1" stop-color="#C10B82"/>
</linearGradient>
</defs>
</svg>
