<svg width="415" height="14" viewBox="0 0 415 14" fill="none" xmlns="http://www.w3.org/2000/svg">
<path d="M4.50354 2.662L3.78954 3.39C3.36954 2.802 2.44554 1.892 1.71754 1.234L2.38954 0.618C3.11754 1.234 4.06954 2.102 4.50354 2.662ZM3.90154 10.628L5.32954 9.564C5.39954 9.844 5.58154 10.236 5.69354 10.432C3.35554 12.238 2.99154 12.546 2.78154 12.812C2.68354 12.574 2.41754 12.14 2.23554 11.93C2.50154 11.776 2.89354 11.356 2.89354 10.74V5.658H0.807536V4.664H3.90154V10.628ZM7.09354 10.152H11.4615V9.018H7.09354V10.152ZM11.4615 7.212H7.09354V8.29H11.4615V7.212ZM12.4555 6.4V11.902C12.4555 12.434 12.3435 12.7 11.9655 12.854C11.5595 13.008 10.9435 13.022 9.94954 13.008C9.90754 12.756 9.76754 12.378 9.64154 12.112C10.3555 12.14 11.0275 12.14 11.1955 12.126C11.4055 12.126 11.4615 12.07 11.4615 11.888V10.908H7.09354V13.064H6.11354V6.4H12.4555ZM9.78154 4.804H13.5475V5.602H5.11954V4.804H8.75954V3.824H5.87554V3.068H8.75954V2.186H5.53954V1.388H8.75954V0.296H9.78154V1.388H13.1415V2.186H9.78154V3.068H12.7215V3.824H9.78154V4.804ZM19.4835 0.253999L20.4635 0.562C20.0715 1.542 19.5675 2.536 19.0215 3.474V13.134H18.0275V4.972C17.5375 5.658 17.0055 6.274 16.4875 6.792C16.3895 6.554 16.0955 6.022 15.8995 5.784C17.3135 4.454 18.6715 2.368 19.4835 0.253999ZM21.4575 7.114H23.9355C23.9495 6.904 23.9495 6.694 23.9495 6.484V5.042H21.4575V7.114ZM27.5475 5.042H24.9715V6.484C24.9715 6.694 24.9715 6.904 24.9575 7.114H27.5475V5.042ZM28.5415 7.996H24.9015C24.7895 8.962 24.5375 9.872 23.9775 10.684C25.3775 11.454 27.1415 11.93 29.1295 12.168C28.9055 12.392 28.6535 12.798 28.5135 13.106C26.5395 12.812 24.7895 12.266 23.3615 11.412C22.6615 12.098 21.6535 12.686 20.1975 13.12C20.0855 12.896 19.7915 12.462 19.5675 12.266C20.9395 11.916 21.8775 11.426 22.5215 10.852C21.6955 10.222 21.0095 9.466 20.4915 8.57L21.3595 8.29C21.7795 9.018 22.3815 9.634 23.1235 10.152C23.5715 9.494 23.7815 8.766 23.8795 7.996H20.4915V4.16H23.9495V2.788H20.0855V1.836H23.9495V0.337999H24.9715V1.836H29.0035V2.788H24.9715V4.16H28.5415V7.996ZM38.5655 7.814H42.3315V5.49H38.5655V7.814ZM34.1275 7.814H37.5295V5.49H34.1835V6.316C34.1835 6.778 34.1695 7.296 34.1275 7.814ZM37.5295 2.27H34.1835V4.51H37.5295V2.27ZM42.3315 4.51V2.27H38.5655V4.51H42.3315ZM43.3535 1.276V11.664C43.3535 12.336 43.1715 12.644 42.7235 12.826C42.2475 12.994 41.4355 13.008 40.1195 12.994C40.0775 12.714 39.9095 12.266 39.7695 11.986C40.7495 12.028 41.7015 12.014 41.9535 12.014C42.2335 12 42.3315 11.916 42.3315 11.65V8.808H38.5655V12.938H37.5295V8.808H34.0295C33.8195 10.362 33.3435 11.958 32.2795 13.148C32.1255 12.938 31.7055 12.588 31.4815 12.462C33.0215 10.726 33.1615 8.262 33.1615 6.316V1.276H43.3535ZM51.4175 12.182C49.3315 12.182 47.7355 11.062 47.7355 7.758V1.738H49.0375V7.8C49.0375 10.278 50.0875 11.048 51.4175 11.048C52.7895 11.048 53.8675 10.278 53.8675 7.8V1.738H55.1135V7.758C55.1135 11.062 53.5175 12.182 51.4175 12.182ZM63.1454 12.182C60.5974 12.182 58.6794 10.208 58.6794 6.876C58.6794 3.558 60.6254 1.542 63.2294 1.542C64.4754 1.542 65.4554 2.158 66.0434 2.816L65.3434 3.656C64.8114 3.082 64.1254 2.676 63.2434 2.676C61.2974 2.676 60.0094 4.272 60.0094 6.834C60.0094 9.424 61.2414 11.048 63.2014 11.048C64.1814 11.048 64.9234 10.614 65.5814 9.9L66.2954 10.712C65.4834 11.65 64.4754 12.182 63.1454 12.182ZM71.8771 2.508L71.1491 3.124C70.7991 2.592 70.0431 1.78 69.3991 1.22L70.0851 0.688C70.7291 1.22 71.5131 1.99 71.8771 2.508ZM71.4291 6.05L70.7571 6.722C70.3651 6.232 69.5251 5.504 68.8251 5L69.4831 4.398C70.1691 4.86 71.0231 5.56 71.4291 6.05ZM71.0091 7.912L71.7931 8.472C71.2751 9.83 70.5891 11.454 69.9871 12.644L69.1191 12.098C69.6651 11.09 70.4491 9.382 71.0091 7.912ZM75.3771 2.284L74.4951 2.676H77.2111V3.614H76.3011C76.0631 5.196 75.7411 6.61 75.3211 7.898C76.0071 9.004 76.5811 10.068 76.8891 10.908L76.0491 11.496C75.7971 10.81 75.3911 9.956 74.8731 9.074C74.2431 10.558 73.4031 11.832 72.2971 12.826C72.1571 12.63 71.7931 12.252 71.5691 12.07C72.7871 11.062 73.6551 9.69 74.2711 8.024C73.6831 7.072 73.0251 6.092 72.3811 5.252L73.1231 4.762C73.6271 5.42 74.1451 6.134 74.6491 6.876C74.9291 5.882 75.1671 4.776 75.3351 3.614H72.1151V2.676H74.4671C74.2711 2.172 73.8931 1.36 73.5291 0.758L74.3831 0.407999C74.7471 0.981999 75.1811 1.78 75.3771 2.284ZM78.6951 1.78V10.04H77.7851V1.78H78.6951ZM80.0531 0.282H81.0051V11.902C81.0051 12.476 80.8651 12.742 80.5291 12.91C80.1791 13.064 79.6331 13.092 78.7371 13.092C78.6951 12.84 78.5551 12.434 78.4291 12.168C79.0591 12.182 79.6331 12.182 79.8011 12.168C79.9831 12.168 80.0531 12.112 80.0531 11.916V0.282ZM96.6291 2.648H92.0651C91.7011 3.558 91.2671 4.356 90.8051 4.972C90.6091 4.832 90.1751 4.552 89.9231 4.44C90.7631 3.418 91.4071 1.85 91.7851 0.282L92.7931 0.478C92.6811 0.884 92.5551 1.318 92.4151 1.71H96.6291V2.648ZM92.5971 3.264L93.4791 2.9C94.2071 3.544 94.9911 4.454 95.3551 5.07L94.4311 5.532C94.0951 4.888 93.3111 3.936 92.5971 3.264ZM89.1671 0.422V5.448H88.1451V0.422H89.1671ZM87.3891 6.792V10.292H86.3671V5.868H95.0051V10.208H93.9411V6.792H87.3891ZM86.2551 1.066V4.986H85.2471V1.066H86.2551ZM92.7931 11.986H95.0471C95.5791 11.986 95.6911 11.804 95.7331 10.544C95.9711 10.698 96.3771 10.852 96.6571 10.922C96.5311 12.49 96.2231 12.868 95.1311 12.868H92.6951C91.3371 12.868 90.9871 12.602 90.9871 11.608V9.41C90.6791 10.684 89.4611 12.098 85.2331 13.106C85.1071 12.868 84.8131 12.476 84.5751 12.266C89.6431 11.188 90.0071 9.62 90.0071 8.5V7.422H91.0711V8.528C91.0711 8.808 91.0431 9.102 90.9731 9.41H92.0231V11.594C92.0231 11.93 92.1351 11.986 92.7931 11.986ZM110.209 3.782V1.808H107.619V3.782H110.209ZM111.217 0.911999V4.678H106.653V0.911999H111.217ZM107.563 11.748H110.041V9.69H107.563V11.748ZM104.301 11.748V9.69H101.977V11.748H104.301ZM104.161 3.782V1.808H101.683V3.782H104.161ZM112.239 7.016H108.459C109.509 7.87 111.035 8.57 112.505 8.934C112.267 9.13 111.987 9.508 111.847 9.76C111.581 9.676 111.315 9.592 111.049 9.494V12.994H110.041V12.658H107.563V13.064H106.597V8.78H109.495C108.599 8.29 107.787 7.674 107.157 7.016H104.539C103.937 7.646 103.209 8.248 102.341 8.78H105.295V12.994H104.301V12.658H101.977V13.064H101.011V9.508C100.703 9.648 100.395 9.788 100.059 9.914C99.9751 9.676 99.6951 9.298 99.4991 9.13C101.011 8.57 102.229 7.828 103.167 7.016H99.7511V6.092H104.063C104.469 5.63 104.777 5.14 105.001 4.678H100.745V0.911999H105.155V4.524L106.149 4.72C105.911 5.182 105.631 5.644 105.309 6.092H109.215C108.753 5.784 108.109 5.462 107.549 5.252L108.095 4.706C108.809 4.944 109.691 5.378 110.153 5.742L109.817 6.092H112.239V7.016ZM116.341 12.182C115.837 12.182 115.417 11.79 115.417 11.216C115.417 10.642 115.837 10.222 116.341 10.222C116.845 10.222 117.265 10.642 117.265 11.216C117.265 11.79 116.845 12.182 116.341 12.182ZM132.768 4.258H128.442C129.45 6.624 131.214 8.836 133.146 9.928C132.88 10.152 132.516 10.53 132.348 10.81C130.276 9.508 128.47 6.988 127.42 4.258H127.224V9.424H130.472V10.46H127.224V13.064H126.146V10.46H122.898V9.424H126.146V4.258H125.922C124.844 6.988 123.038 9.48 121.022 10.852C120.854 10.6 120.518 10.222 120.28 10.026C122.128 8.892 123.85 6.624 124.872 4.258H120.644V3.222H126.146V0.296H127.224V3.222H132.768V4.258ZM141.28 7.058L140.678 8.052C140.384 7.534 139.74 6.554 139.222 5.784V13.064H138.2V6.274C137.654 7.828 136.954 9.354 136.212 10.292C136.086 9.998 135.82 9.62 135.652 9.382C136.604 8.136 137.598 5.91 138.074 3.978H135.862V2.984H138.2V0.296H139.222V2.984H141.168V3.978H139.222V4.44C139.698 4.972 140.986 6.666 141.28 7.058ZM146.894 11.944H147.272C147.37 11.944 147.468 11.916 147.538 11.846C147.608 11.762 147.636 11.636 147.678 11.314C147.692 10.992 147.72 10.264 147.72 9.326C147.93 9.522 148.252 9.676 148.518 9.774C148.518 10.558 148.476 11.594 148.406 11.944C148.336 12.35 148.224 12.56 148.042 12.714C147.846 12.854 147.58 12.91 147.314 12.91H146.628C146.362 12.91 146.068 12.826 145.844 12.63C145.62 12.434 145.55 12.196 145.55 10.978V2.074H142.988V5.56C142.988 7.856 142.694 11.034 140.692 13.106C140.538 12.896 140.118 12.532 139.88 12.406C141.77 10.46 141.952 7.688 141.952 5.546V1.08H146.572V11.076C146.572 11.538 146.6 11.804 146.656 11.86C146.726 11.916 146.796 11.944 146.894 11.944ZM156.134 6.386L156.26 7.324C155.616 7.492 154.958 7.674 154.314 7.842V11.776C154.314 12.378 154.174 12.658 153.81 12.812C153.446 12.98 152.872 13.008 151.906 13.008C151.878 12.728 151.724 12.322 151.584 12.042C152.256 12.07 152.858 12.056 153.026 12.056C153.222 12.056 153.306 11.986 153.306 11.79V8.094C152.606 8.276 151.948 8.444 151.374 8.598L151.08 7.576C151.696 7.436 152.466 7.268 153.306 7.072V3.992H151.248V3.012H153.306V0.323999H154.314V3.012H156.134V3.992H154.314V6.834L156.134 6.386ZM156.386 1.598H163.106V13.036H162.098V12.014H156.288V11.034H162.098V7.044H156.722V6.022H162.098V2.564H156.386V1.598ZM170.106 10.376V6.246H168.468V10.376H170.106ZM166.648 1.99V1.024H171.422V1.99H169.336C169.126 3.152 168.832 4.286 168.468 5.322H171.03V11.314H168.468V12.448H167.558V7.394C167.334 7.8 167.096 8.178 166.83 8.514C166.76 8.262 166.522 7.674 166.354 7.408C167.334 6.092 167.978 4.118 168.356 1.99H166.648ZM176.966 9.116V10.054H171.646V9.116H176.966ZM177.274 6.386H178.996C178.996 6.386 178.982 6.708 178.968 6.848C178.66 10.6 178.338 12.056 177.848 12.56C177.568 12.854 177.316 12.966 176.896 12.98C176.532 13.022 175.902 13.008 175.23 12.98C175.202 12.686 175.104 12.294 174.936 12.014C175.622 12.098 176.238 12.098 176.49 12.098C176.728 12.098 176.882 12.07 177.022 11.93C177.386 11.58 177.68 10.348 177.946 7.282H172.304C172.486 6.148 172.668 4.3 172.766 2.942L173.732 2.998C173.662 4.062 173.522 5.35 173.396 6.386H176.308C176.476 4.986 176.658 3.292 176.77 2.074H172.108V1.122H176.952L177.106 1.066L177.834 1.15C177.722 2.592 177.512 4.664 177.274 6.386ZM187.368 8.01L187.494 8.976C185.604 9.536 183.602 10.096 182.132 10.502L181.866 9.438C182.482 9.298 183.252 9.102 184.106 8.892V2.928H182.062V1.934H187.158V2.928H185.128V8.612C185.856 8.416 186.626 8.206 187.368 8.01ZM190.63 3.46H194.41C194.41 3.46 194.41 3.852 194.396 3.992C194.172 9.732 193.99 11.734 193.458 12.378C193.15 12.756 192.87 12.868 192.38 12.924C191.932 12.966 191.106 12.952 190.322 12.896C190.308 12.602 190.182 12.168 190 11.874C190.854 11.958 191.652 11.958 191.96 11.958C192.226 11.958 192.394 11.916 192.548 11.748C192.94 11.3 193.164 9.424 193.374 4.468H190.574C190.35 8.178 189.538 11.3 186.346 13.092C186.206 12.826 185.856 12.448 185.604 12.266C188.572 10.684 189.342 7.856 189.552 4.468H187.256V3.46H189.594C189.622 2.522 189.636 1.542 189.636 0.519999H190.672C190.672 1.528 190.658 2.508 190.63 3.46ZM208.466 6.4H206.058C204.742 6.4 204.406 6.078 204.406 4.944V0.323999H205.414V2.662C206.604 2.27 207.864 1.752 208.662 1.346L209.362 2.102C208.256 2.62 206.758 3.11 205.414 3.516V4.93C205.414 5.364 205.526 5.462 206.156 5.462H208.382C208.914 5.462 209.012 5.224 209.082 3.838C209.292 4.02 209.712 4.174 210.006 4.244C209.88 5.924 209.572 6.4 208.466 6.4ZM199.114 9.41H202.068V8.136H199.114V9.41ZM202.068 6.12H199.114V7.31H202.068V6.12ZM203.09 5.238V11.874C203.09 12.406 202.992 12.686 202.6 12.854C202.222 13.022 201.62 13.036 200.738 13.036C200.682 12.756 200.542 12.35 200.402 12.084C201.06 12.112 201.648 12.098 201.83 12.084C202.026 12.084 202.068 12.042 202.068 11.86V10.222H199.114V13.064H198.148V5.238H203.09ZM201.074 1.472L201.928 1.122C202.642 2.06 203.426 3.32 203.72 4.146L202.81 4.552C202.726 4.328 202.628 4.09 202.502 3.81C198.68 4.09 198.204 4.16 197.896 4.272C197.84 4.062 197.686 3.544 197.56 3.292C197.77 3.236 197.966 3.04 198.204 2.746C198.442 2.452 199.212 1.346 199.66 0.253999L200.724 0.589999C200.248 1.514 199.618 2.466 199.016 3.208L202.082 3.026C201.774 2.48 201.41 1.934 201.074 1.472ZM206.198 12.028H208.452C209.026 12.028 209.138 11.748 209.208 10.194C209.432 10.348 209.838 10.516 210.132 10.572C210.006 12.462 209.698 12.952 208.536 12.952H206.1C204.756 12.952 204.406 12.63 204.406 11.482V6.792H205.428V8.99C206.688 8.584 208.046 8.052 208.83 7.534L209.516 8.304C208.452 8.934 206.842 9.466 205.428 9.858V11.482C205.428 11.944 205.554 12.028 206.198 12.028ZM217.734 6.386L217.86 7.324C217.216 7.492 216.558 7.674 215.914 7.842V11.776C215.914 12.378 215.774 12.658 215.41 12.812C215.046 12.98 214.472 13.008 213.506 13.008C213.478 12.728 213.324 12.322 213.184 12.042C213.856 12.07 214.458 12.056 214.626 12.056C214.822 12.056 214.906 11.986 214.906 11.79V8.094C214.206 8.276 213.548 8.444 212.974 8.598L212.68 7.576C213.296 7.436 214.066 7.268 214.906 7.072V3.992H212.848V3.012H214.906V0.323999H215.914V3.012H217.734V3.992H215.914V6.834L217.734 6.386ZM217.986 1.598H224.706V13.036H223.698V12.014H217.888V11.034H223.698V7.044H218.322V6.022H223.698V2.564H217.986V1.598ZM231.706 10.376V6.246H230.068V10.376H231.706ZM228.248 1.99V1.024H233.022V1.99H230.936C230.726 3.152 230.432 4.286 230.068 5.322H232.63V11.314H230.068V12.448H229.158V7.394C228.934 7.8 228.696 8.178 228.43 8.514C228.36 8.262 228.122 7.674 227.954 7.408C228.934 6.092 229.578 4.118 229.956 1.99H228.248ZM238.566 9.116V10.054H233.246V9.116H238.566ZM238.874 6.386H240.596C240.596 6.386 240.582 6.708 240.568 6.848C240.26 10.6 239.938 12.056 239.448 12.56C239.168 12.854 238.916 12.966 238.496 12.98C238.132 13.022 237.502 13.008 236.83 12.98C236.802 12.686 236.704 12.294 236.536 12.014C237.222 12.098 237.838 12.098 238.09 12.098C238.328 12.098 238.482 12.07 238.622 11.93C238.986 11.58 239.28 10.348 239.546 7.282H233.904C234.086 6.148 234.268 4.3 234.366 2.942L235.332 2.998C235.262 4.062 235.122 5.35 234.996 6.386H237.908C238.076 4.986 238.258 3.292 238.37 2.074H233.708V1.122H238.552L238.706 1.066L239.434 1.15C239.322 2.592 239.112 4.664 238.874 6.386ZM260.4 2.312H255.962C255.654 2.83 255.318 3.334 254.968 3.852V13.036H253.862V5.252C252.448 6.862 250.74 8.304 248.794 9.326C248.64 9.06 248.304 8.654 248.094 8.416C250.852 7.03 253.246 4.706 254.632 2.312H248.444V1.276H260.4V2.312ZM255.248 5.322L256.018 4.65C257.642 5.7 259.77 7.268 260.792 8.332L259.966 9.13C258.972 8.066 256.9 6.414 255.248 5.322ZM273.014 6.61H266.854C267.554 7.926 268.562 9.018 269.878 9.872C271.208 9.032 272.286 7.968 273.014 6.61ZM273.812 5.546L274.526 5.994C273.728 7.898 272.454 9.34 270.844 10.432C272.37 11.216 274.176 11.748 276.262 12C276.038 12.252 275.758 12.7 275.618 13.008C273.364 12.658 271.418 12.028 269.836 11.076C268.1 12.042 266.07 12.672 263.956 13.078C263.858 12.798 263.578 12.322 263.382 12.084C265.37 11.762 267.26 11.244 268.884 10.432C267.554 9.466 266.518 8.234 265.762 6.722L266.07 6.61H264.586V5.588H269.262V3.446H263.956V2.424H269.262V0.296H270.326V2.424H275.66V3.446H270.326V5.588H273.602L273.812 5.546ZM282.996 6.372L283.136 7.324L281.61 7.814V11.818C281.61 12.392 281.484 12.672 281.134 12.84C280.812 13.008 280.28 13.05 279.398 13.036C279.356 12.77 279.23 12.35 279.09 12.056C279.692 12.084 280.238 12.084 280.392 12.07C280.574 12.07 280.644 12.014 280.644 11.818V8.136C280.028 8.346 279.44 8.528 278.922 8.682L278.656 7.688C279.202 7.534 279.888 7.324 280.644 7.086V4.062H278.852V3.096H280.644V0.296H281.61V3.096H283.094V4.062H281.61V6.806L282.996 6.372ZM284.494 9.144L285.292 8.668C285.908 9.396 286.594 10.404 286.888 11.076L286.02 11.594C285.754 10.922 285.096 9.872 284.494 9.144ZM291.62 5.784H289.8V7.324H291.522V8.276H289.8V11.804C289.8 12.448 289.674 12.728 289.268 12.882C288.848 13.05 288.176 13.064 287.14 13.064C287.098 12.756 286.958 12.35 286.818 12.056C287.602 12.084 288.344 12.084 288.554 12.07C288.75 12.056 288.82 12 288.82 11.804V8.276H283.458V7.324H288.82V5.784H283.29V4.818H286.972V3.04H284.004V2.088H286.972V0.352H287.966V2.088H290.948V3.04H287.966V4.818H291.62V5.784ZM302.246 1.43V4.748H297.878V1.43H298.62V3.894H299.684V0.296H300.482V3.894H301.49V1.43H302.246ZM296.436 0.282L297.388 0.645999C296.702 1.752 295.61 3.012 294.63 3.838C294.504 3.628 294.224 3.25 294.056 3.054C294.952 2.34 295.932 1.206 296.436 0.282ZM296.73 3.068L297.64 3.39C297.36 3.964 297.024 4.552 296.674 5.126V13.05H295.722V6.498C295.33 7.044 294.91 7.52 294.518 7.94C294.406 7.73 294.084 7.226 293.902 7.03C294.952 6.022 296.044 4.538 296.73 3.068ZM301.784 10.026L302.848 9.354C302.904 9.592 303.03 9.942 303.114 10.096C301.434 11.23 301.126 11.482 300.93 11.734C300.874 11.496 300.678 11.076 300.552 10.866C300.706 10.768 300.93 10.544 300.93 9.998V8.374H299.124V9.186C299.124 10.348 298.886 11.93 297.85 13.036C297.724 12.826 297.36 12.462 297.178 12.336C298.074 11.398 298.214 10.138 298.214 9.172V7.548H301.784V10.026ZM305.606 4.062H303.912C303.87 4.258 303.814 4.44 303.772 4.622C303.954 6.008 304.22 7.352 304.626 8.542C305.116 7.254 305.424 5.784 305.606 4.062ZM307.006 4.062H306.544C306.264 6.288 305.844 8.164 305.102 9.704C305.606 10.796 306.278 11.692 307.132 12.21C306.922 12.392 306.614 12.756 306.46 13.022C305.676 12.476 305.06 11.664 304.57 10.656C303.954 11.622 303.198 12.434 302.204 13.106C302.092 12.91 301.798 12.504 301.602 12.336C302.708 11.65 303.52 10.74 304.122 9.634C303.744 8.584 303.464 7.422 303.254 6.162C303.1 6.498 302.946 6.834 302.764 7.114C302.652 6.974 302.442 6.708 302.246 6.498V6.666H297.612V5.77H302.246V6.05C302.988 4.58 303.366 2.48 303.59 0.296L304.542 0.449999C304.43 1.388 304.29 2.298 304.122 3.166H307.006V4.062ZM318.514 2.102L317.576 2.508C317.394 2.018 316.96 1.22 316.61 0.645999L317.492 0.282C317.898 0.87 318.318 1.612 318.514 2.102ZM312.648 0.337999L313.572 0.618C313.25 1.556 312.844 2.494 312.396 3.376V13.12H311.43V5.056C311.01 5.728 310.548 6.33 310.1 6.862C310.002 6.638 309.708 6.134 309.526 5.896C310.786 4.538 311.934 2.452 312.648 0.337999ZM320.362 9.452H315.112V11.664H320.362V9.452ZM314.202 13.078V8.584H321.286V13.036H320.362V12.532H315.112V13.078H314.202ZM314.398 7.408V6.554H321.146V7.408H314.398ZM321.146 4.594V5.448H314.398V4.594H321.146ZM313.39 2.592H322.252V3.474H313.39V2.592ZM337.092 1.78L336.448 2.508C335.958 2.032 334.936 1.388 334.082 0.981999L334.684 0.337999C335.538 0.715999 336.574 1.318 337.092 1.78ZM331.492 9.816L331.576 10.796C329.434 11.258 327.152 11.748 325.528 12.112L325.332 11.062C326.844 10.768 329.224 10.292 331.492 9.816ZM330.022 8.108V5.686H327.18V8.108H330.022ZM326.214 4.776H331.044V9.004H326.214V4.776ZM335.888 4.538L336.924 4.79C336.322 6.666 335.496 8.304 334.446 9.69C334.964 11.132 335.594 12 336.28 12C336.672 12 336.84 11.272 336.924 9.41C337.162 9.662 337.54 9.9 337.834 9.998C337.652 12.392 337.26 13.078 336.182 13.078C335.132 13.078 334.292 12.168 333.662 10.656C332.794 11.608 331.814 12.406 330.708 13.064C330.54 12.854 330.134 12.448 329.896 12.266C331.212 11.566 332.332 10.642 333.256 9.522C332.766 7.884 332.458 5.812 332.276 3.544H325.402V2.522H332.22C332.178 1.794 332.164 1.066 332.15 0.323999H333.242C333.242 1.08 333.256 1.808 333.284 2.522H337.484V3.544H333.354C333.494 5.392 333.732 7.072 334.082 8.43C334.838 7.282 335.44 5.994 335.888 4.538ZM350.014 6.61H343.854C344.554 7.926 345.562 9.018 346.878 9.872C348.208 9.032 349.286 7.968 350.014 6.61ZM350.812 5.546L351.526 5.994C350.728 7.898 349.454 9.34 347.844 10.432C349.37 11.216 351.176 11.748 353.262 12C353.038 12.252 352.758 12.7 352.618 13.008C350.364 12.658 348.418 12.028 346.836 11.076C345.1 12.042 343.07 12.672 340.956 13.078C340.858 12.798 340.578 12.322 340.382 12.084C342.37 11.762 344.26 11.244 345.884 10.432C344.554 9.466 343.518 8.234 342.762 6.722L343.07 6.61H341.586V5.588H346.262V3.446H340.956V2.424H346.262V0.296H347.326V2.424H352.66V3.446H347.326V5.588H350.602L350.812 5.546ZM359.366 0.379999L360.388 0.701999C359.968 1.752 359.478 2.788 358.904 3.754V13.036H357.868V5.364C357.42 5.994 356.93 6.568 356.454 7.058C356.328 6.82 356.006 6.274 355.81 6.036C357.238 4.678 358.568 2.55 359.366 0.379999ZM368.522 3.39V4.426H366.758V11.65C366.758 12.434 366.534 12.756 366.016 12.91C365.47 13.078 364.532 13.092 363.02 13.078C362.964 12.812 362.768 12.336 362.614 12.056C363.79 12.098 364.938 12.098 365.274 12.084C365.582 12.056 365.708 11.972 365.708 11.65V4.426H360.066V3.39H365.708V0.449999H366.758V3.39H368.522ZM363.944 9.284L362.978 9.802C362.558 8.934 361.662 7.436 360.948 6.316L361.844 5.896C362.572 6.974 363.496 8.43 363.944 9.284ZM378.14 11.692H383.67V12.658H371.588V11.692H377.034V8.878H373.268V7.912H377.034V5.714H372.918V4.748H382.326V3.026H372.862V4.972H371.84V2.032H377.398C377.202 1.528 376.908 0.926 376.656 0.436L377.664 0.197999C377.986 0.758 378.364 1.5 378.588 2.032H383.39V4.972H382.34V5.714H378.14V7.912H382.018V8.878H378.14V11.692ZM379.204 9.578L379.932 9.074C380.674 9.648 381.668 10.474 382.172 10.964L381.416 11.58C380.926 11.062 379.96 10.208 379.204 9.578ZM391.664 6.386L391.79 7.324C391.146 7.492 390.488 7.674 389.844 7.842V11.776C389.844 12.378 389.704 12.658 389.34 12.812C388.976 12.98 388.402 13.008 387.436 13.008C387.408 12.728 387.254 12.322 387.114 12.042C387.786 12.07 388.388 12.056 388.556 12.056C388.752 12.056 388.836 11.986 388.836 11.79V8.094C388.136 8.276 387.478 8.444 386.904 8.598L386.61 7.576C387.226 7.436 387.996 7.268 388.836 7.072V3.992H386.778V3.012H388.836V0.323999H389.844V3.012H391.664V3.992H389.844V6.834L391.664 6.386ZM391.916 1.598H398.636V13.036H397.628V12.014H391.818V11.034H397.628V7.044H392.252V6.022H397.628V2.564H391.916V1.598ZM405.636 10.376V6.246H403.998V10.376H405.636ZM402.178 1.99V1.024H406.952V1.99H404.866C404.656 3.152 404.362 4.286 403.998 5.322H406.56V11.314H403.998V12.448H403.088V7.394C402.864 7.8 402.626 8.178 402.36 8.514C402.29 8.262 402.052 7.674 401.884 7.408C402.864 6.092 403.508 4.118 403.886 1.99H402.178ZM412.496 9.116V10.054H407.176V9.116H412.496ZM412.804 6.386H414.526C414.526 6.386 414.512 6.708 414.498 6.848C414.19 10.6 413.868 12.056 413.378 12.56C413.098 12.854 412.846 12.966 412.426 12.98C412.062 13.022 411.432 13.008 410.76 12.98C410.732 12.686 410.634 12.294 410.466 12.014C411.152 12.098 411.768 12.098 412.02 12.098C412.258 12.098 412.412 12.07 412.552 11.93C412.916 11.58 413.21 10.348 413.476 7.282H407.834C408.016 6.148 408.198 4.3 408.296 2.942L409.262 2.998C409.192 4.062 409.052 5.35 408.926 6.386H411.838C412.006 4.986 412.188 3.292 412.3 2.074H407.638V1.122H412.482L412.636 1.066L413.364 1.15C413.252 2.592 413.042 4.664 412.804 6.386Z" fill="white"/>
</svg>
