<svg width="506" height="34" viewBox="0 0 506 34" fill="none" xmlns="http://www.w3.org/2000/svg">
<path d="M7.476 11.188H11.326V8.08H7.476V11.188ZM2.674 8.08V11.188H6.44V8.08H2.674ZM6.44 4.034H2.674V7.058H6.44V4.034ZM11.326 4.034H7.476V7.058H11.326V4.034ZM7.476 2.998H12.376V13.008H11.326V12.21H2.674V13.078H1.638V2.998H6.44V0.309999H7.476V2.998ZM28.602 5.84V6.862H23.072V11.552C23.072 12.322 22.862 12.644 22.344 12.812C21.826 12.994 20.916 13.008 19.502 13.008C19.432 12.714 19.222 12.224 19.054 11.93C20.202 11.958 21.266 11.958 21.588 11.944C21.882 11.93 21.994 11.846 21.994 11.552V6.862H16.212V5.84H21.994V2.312H17.178V1.29H27.622V2.312H23.072V5.84H28.602ZM35.224 4.65V5.924H40.306V4.65H35.224ZM40.306 2.62H35.224V3.796H40.306V2.62ZM43.974 8.948H39.228C40.488 10.208 42.462 11.328 44.268 11.888C44.016 12.084 43.722 12.476 43.568 12.742C41.706 12.07 39.62 10.726 38.29 9.242V13.078H37.254V9.242C35.938 10.74 33.88 12.084 32.06 12.784C31.892 12.532 31.598 12.14 31.374 11.944C33.138 11.37 35.084 10.222 36.33 8.948H31.64V8.01H37.254V6.806H34.202V2.62H31.668V1.724H34.202V0.282H35.224V1.724H40.306V0.282H41.356V1.724H43.96V2.62H41.356V6.806H38.29V8.01H43.974V8.948ZM57.932 7.338H55.552C54.236 7.338 53.886 6.988 53.886 5.77V0.296H54.922V3.068C56.098 2.648 57.288 2.13 58.03 1.654L58.856 2.452C57.764 3.04 56.294 3.572 54.922 3.992V5.77C54.922 6.246 55.02 6.344 55.664 6.344H57.848C58.408 6.344 58.492 6.078 58.562 4.524C58.8 4.706 59.22 4.874 59.528 4.958C59.388 6.82 59.08 7.338 57.932 7.338ZM48.594 9.662V8.668H57.974V9.662H48.594ZM53.242 5.994L53.256 6.932C51.002 7.24 48.622 7.548 46.956 7.744L46.83 6.736L47.754 6.638V1.822H48.72V6.526L49.952 6.372V0.296H50.974V2.69H53.144V3.642H50.974V6.246L53.242 5.994ZM47.04 12.728V11.706H59.374V12.728H47.04ZM66.822 9.2L67.788 9.536C67.074 10.544 66.108 11.72 65.324 12.476C65.114 12.322 64.694 12.042 64.442 11.888C65.268 11.188 66.192 10.138 66.822 9.2ZM66.78 6.386V7.688H72.59V6.386H66.78ZM66.78 4.3V5.602H72.59V4.3H66.78ZM73.64 8.514H70.182V11.93C70.182 12.476 70.07 12.742 69.65 12.896C69.23 13.064 68.544 13.064 67.48 13.064C67.438 12.784 67.284 12.406 67.158 12.14C67.97 12.154 68.684 12.154 68.894 12.154C69.118 12.14 69.174 12.084 69.174 11.916V8.514H65.758V3.474H68.488C68.698 3.054 68.894 2.55 69.02 2.186L70.224 2.368C70.014 2.746 69.804 3.124 69.608 3.474H73.64V8.514ZM71.358 9.662L72.184 9.228C73.01 10.096 74.13 11.286 74.69 12L73.822 12.56C73.304 11.804 72.198 10.572 71.358 9.662ZM74.746 1.066V2.018H64.498V5.014C64.498 7.254 64.316 10.558 63.028 12.784C62.832 12.616 62.398 12.364 62.132 12.266C63.35 10.138 63.476 7.142 63.476 5.014V1.066H74.746ZM88.004 5.63H84.378C84.336 5.882 84.294 6.106 84.238 6.344C85.68 7.562 87.234 9.214 88.004 10.292L87.262 10.908C86.59 9.928 85.26 8.458 84 7.268C83.468 8.892 82.516 10.194 80.654 11.048C80.528 10.796 80.22 10.418 80.01 10.222C82.18 9.27 83.02 7.674 83.356 5.63H79.996V4.678H83.482C83.552 3.964 83.594 3.194 83.622 2.396H84.644C84.616 3.194 84.574 3.95 84.504 4.678H88.004V5.63ZM79.17 11.482H88.83V1.808H79.17V11.482ZM78.204 0.855999H89.838V13.064H88.83V12.378H79.17V13.064H78.204V0.855999ZM94.598 13.498L94.29 12.756C95.368 12.308 95.984 11.65 96.054 10.698C95.97 10.712 95.9 10.712 95.816 10.712C95.242 10.712 94.766 10.376 94.766 9.718C94.766 9.06 95.256 8.71 95.83 8.71C96.6 8.71 97.02 9.34 97.02 10.32C97.02 11.832 96.068 12.98 94.598 13.498ZM120.876 4.258H116.55C117.558 6.624 119.322 8.836 121.254 9.928C120.988 10.152 120.624 10.53 120.456 10.81C118.384 9.508 116.578 6.988 115.528 4.258H115.332V9.424H118.58V10.46H115.332V13.064H114.254V10.46H111.006V9.424H114.254V4.258H114.03C112.952 6.988 111.146 9.48 109.13 10.852C108.962 10.6 108.626 10.222 108.388 10.026C110.236 8.892 111.958 6.624 112.98 4.258H108.752V3.222H114.254V0.296H115.332V3.222H120.876V4.258ZM125.874 7.828H128.982L128.492 6.26C128.114 5.098 127.792 3.978 127.456 2.788H127.4C127.078 3.992 126.742 5.098 126.378 6.26L125.874 7.828ZM130.284 12L129.304 8.864H125.552L124.558 12H123.242L126.728 1.738H128.17L131.656 12H130.284ZM134.504 12V1.738H137.43C139.74 1.738 141.28 2.508 141.28 4.748C141.28 6.918 139.74 7.926 137.5 7.926H135.806V12H134.504ZM135.806 6.876H137.332C139.138 6.876 139.992 6.218 139.992 4.748C139.992 3.264 139.082 2.788 137.276 2.788H135.806V6.876ZM144.75 12V1.738H147.676C149.986 1.738 151.526 2.508 151.526 4.748C151.526 6.918 149.986 7.926 147.746 7.926H146.052V12H144.75ZM146.052 6.876H147.578C149.384 6.876 150.238 6.218 150.238 4.748C150.238 3.264 149.328 2.788 147.522 2.788H146.052V6.876ZM157.487 2.214L156.647 2.704C156.451 2.172 155.975 1.332 155.583 0.729999L156.381 0.337999C156.787 0.926 157.263 1.724 157.487 2.214ZM158.901 8.556L158.341 9.354C158.089 8.934 157.557 8.122 157.095 7.45V13.064H156.115V7.618C155.597 8.276 155.065 8.85 154.547 9.312C154.449 9.06 154.211 8.556 154.057 8.374C155.331 7.31 156.703 5.49 157.473 3.712H154.211V2.76H157.963L158.117 2.718L158.635 3.124C158.257 4.188 157.711 5.252 157.095 6.218V6.274C157.207 6.4 157.347 6.582 157.501 6.778C157.879 6.358 158.327 5.798 158.593 5.42L159.223 5.994C158.789 6.442 158.313 6.946 157.921 7.282C158.341 7.814 158.747 8.36 158.901 8.556ZM165.103 6.666H161.519C161.939 7.842 162.541 8.892 163.325 9.76C164.095 8.906 164.697 7.87 165.103 6.666ZM162.513 3.32H160.497V5.742H162.513V3.32ZM165.677 5.7L166.293 5.952C165.859 7.814 165.047 9.298 164.025 10.446C164.879 11.202 165.901 11.79 167.091 12.14C166.867 12.35 166.573 12.742 166.447 13.022C165.229 12.602 164.193 11.972 163.325 11.146C162.401 11.986 161.337 12.616 160.203 13.064C160.091 12.812 159.839 12.42 159.629 12.224C160.721 11.846 161.757 11.258 162.653 10.446C161.757 9.41 161.085 8.136 160.609 6.666H160.483C160.427 8.682 160.063 11.23 158.663 12.98C158.523 12.77 158.117 12.434 157.921 12.308C159.377 10.474 159.531 7.912 159.531 5.98V2.34H162.513V0.296H163.493V2.34H165.999L166.167 2.298L166.895 2.494C166.629 3.474 166.293 4.594 165.999 5.294L165.131 5.084C165.299 4.636 165.495 3.964 165.649 3.32H163.493V5.742H165.481L165.677 5.7ZM173.419 4.65V5.924H178.501V4.65H173.419ZM178.501 2.62H173.419V3.796H178.501V2.62ZM182.169 8.948H177.423C178.683 10.208 180.657 11.328 182.463 11.888C182.211 12.084 181.917 12.476 181.763 12.742C179.901 12.07 177.815 10.726 176.485 9.242V13.078H175.449V9.242C174.133 10.74 172.075 12.084 170.255 12.784C170.087 12.532 169.793 12.14 169.569 11.944C171.333 11.37 173.279 10.222 174.525 8.948H169.835V8.01H175.449V6.806H172.397V2.62H169.863V1.724H172.397V0.282H173.419V1.724H178.501V0.282H179.551V1.724H182.155V2.62H179.551V6.806H176.485V8.01H182.169V8.948ZM196.127 7.338H193.747C192.431 7.338 192.081 6.988 192.081 5.77V0.296H193.117V3.068C194.293 2.648 195.483 2.13 196.225 1.654L197.051 2.452C195.959 3.04 194.489 3.572 193.117 3.992V5.77C193.117 6.246 193.215 6.344 193.859 6.344H196.043C196.603 6.344 196.687 6.078 196.757 4.524C196.995 4.706 197.415 4.874 197.723 4.958C197.583 6.82 197.275 7.338 196.127 7.338ZM186.789 9.662V8.668H196.169V9.662H186.789ZM191.437 5.994L191.451 6.932C189.197 7.24 186.817 7.548 185.151 7.744L185.025 6.736L185.949 6.638V1.822H186.915V6.526L188.147 6.372V0.296H189.169V2.69H191.339V3.642H189.169V6.246L191.437 5.994ZM185.235 12.728V11.706H197.569V12.728H185.235ZM212.017 3.376H208.433C208.097 4.538 207.649 5.574 207.103 6.372C206.921 6.204 206.487 5.924 206.235 5.784C207.215 4.482 207.761 2.438 208.055 0.282L209.063 0.436C208.951 1.122 208.825 1.78 208.685 2.424H212.367L212.479 2.396L213.151 2.592C212.899 3.866 212.535 5.378 212.227 6.316L211.387 6.064C211.597 5.378 211.821 4.342 212.017 3.376ZM206.543 9.704L204.653 10.026V12.994H203.701V10.18C202.567 10.362 201.489 10.53 200.621 10.67L200.397 9.62C201.279 9.522 202.441 9.354 203.701 9.172V7.156H202.217C201.713 7.156 201.279 7.24 201.153 7.352C201.097 7.142 200.943 6.68 200.817 6.428C201.083 6.358 201.293 5.938 201.573 5.322C201.741 4.972 202.105 4.062 202.483 2.942H200.537V1.948H202.791C202.945 1.416 203.099 0.855999 203.211 0.309999L204.219 0.533999C204.107 0.996 203.967 1.486 203.827 1.948H206.487V2.942H203.491C203.099 4.132 202.637 5.252 202.175 6.204H203.701V4.146H204.653V6.204H206.403V7.156H204.653V9.032L206.501 8.766L206.543 9.704ZM210.071 4.692V5.35C210.071 5.742 210.057 6.162 210.029 6.624C210.519 9.116 211.527 11.3 213.249 12.21C213.039 12.406 212.717 12.798 212.563 13.05C211.163 12.238 210.253 10.684 209.651 8.766C209.231 10.236 208.377 11.776 206.669 13.078C206.501 12.854 206.151 12.532 205.899 12.378C208.867 10.18 209.077 7.282 209.077 5.336V4.692H210.071ZM218.975 0.337999L219.955 0.645999C219.563 1.668 219.101 2.704 218.569 3.67V13.05H217.575V5.28C217.169 5.882 216.721 6.428 216.287 6.918C216.189 6.666 215.881 6.134 215.699 5.896C217.001 4.538 218.233 2.452 218.975 0.337999ZM228.467 7.226V8.248H224.673V13.078H223.637V8.248H219.647V7.226H223.637V4.16H221.439C221.145 4.972 220.809 5.7 220.431 6.288C220.235 6.134 219.801 5.882 219.535 5.756C220.361 4.608 220.935 2.788 221.257 0.981999L222.237 1.192C222.111 1.85 221.957 2.508 221.775 3.138H223.637V0.463999H224.673V3.138H227.865V4.16H224.673V7.226H228.467ZM235.453 2.522L234.725 3.278C234.263 2.746 233.311 1.836 232.625 1.206L233.325 0.562C234.025 1.164 234.991 2.018 235.453 2.522ZM234.655 10.39L236.377 9.242C236.447 9.508 236.587 9.9 236.699 10.11C234.039 11.972 233.661 12.252 233.451 12.518C233.353 12.294 233.073 11.93 232.891 11.762C233.171 11.566 233.647 11.09 233.647 10.432V5.658H231.295V4.664H234.655V10.39ZM239.303 0.296H240.339C240.325 1.738 240.325 3.18 240.227 4.58C240.423 5.924 241.053 10.362 244.105 12.294C243.811 12.49 243.503 12.812 243.335 13.064C241.375 11.734 240.381 9.368 239.863 7.408C239.415 9.718 238.477 11.734 236.615 13.092C236.433 12.854 236.111 12.532 235.817 12.35C239.345 9.9 239.275 5.014 239.303 0.296ZM248.207 2.858V4.902H247.185V1.864H252.617C252.449 1.43 252.197 0.897999 251.973 0.492L252.981 0.197999C253.289 0.715999 253.639 1.402 253.807 1.864H258.791V4.902H257.741V2.858H248.207ZM253.513 8.836V11.636C254.213 11.776 254.983 11.818 255.809 11.818C256.313 11.818 258.707 11.818 259.379 11.79C259.211 12.056 259.043 12.532 258.987 12.84H255.753C252.841 12.84 250.755 12.336 249.481 9.956C249.005 11.258 248.319 12.322 247.395 13.12C247.227 12.924 246.807 12.56 246.555 12.406C248.109 11.216 248.865 9.228 249.173 6.708L250.209 6.82C250.125 7.464 250.013 8.066 249.887 8.626C250.419 10.11 251.315 10.922 252.449 11.356V5.574H248.977V4.58H257.083V5.574H253.513V7.856H257.657V8.836H253.513ZM266.113 2.732L265.161 3.194C264.895 2.62 264.265 1.724 263.705 1.08L264.601 0.688C265.161 1.304 265.805 2.172 266.113 2.732ZM268.157 3.642H273.967C273.967 3.642 273.953 4.034 273.953 4.188C273.729 9.746 273.547 11.706 273.001 12.364C272.679 12.742 272.357 12.868 271.839 12.91C271.363 12.952 270.467 12.938 269.627 12.882C269.599 12.574 269.459 12.126 269.263 11.804C270.187 11.902 271.083 11.902 271.433 11.902C271.713 11.902 271.881 11.86 272.035 11.692C272.455 11.272 272.665 9.41 272.861 4.678H268.059C267.723 7.394 266.603 10.502 263.019 12.882C262.851 12.63 262.473 12.294 262.207 12.126C265.553 9.942 266.659 7.142 266.995 4.678H262.599V3.642H267.107C267.149 3.054 267.163 2.494 267.163 1.962V0.323999H268.199V1.976C268.199 2.508 268.185 3.054 268.157 3.642ZM271.181 9.046L270.271 9.55C269.921 8.822 269.095 7.646 268.381 6.806L269.235 6.386C269.977 7.198 270.817 8.318 271.181 9.046ZM279.427 5.56L278.601 5.98C278.461 5.294 277.999 4.202 277.537 3.376L278.307 3.012C278.797 3.796 279.287 4.874 279.427 5.56ZM281.247 4.944V4.034H290.039V4.944H285.979V6.372H289.647V11.888C289.647 12.42 289.535 12.7 289.157 12.868C288.751 13.036 288.121 13.036 287.141 13.036C287.099 12.756 286.945 12.364 286.805 12.112C287.547 12.14 288.205 12.126 288.387 12.112C288.597 12.112 288.653 12.056 288.653 11.874V7.282H285.951C285.937 7.534 285.895 7.786 285.839 8.038C286.707 8.808 287.771 9.844 288.317 10.516L287.631 11.104C287.183 10.516 286.357 9.634 285.559 8.892C285.209 9.732 284.537 10.572 283.333 11.216C283.193 11.02 282.899 10.684 282.703 10.502C284.453 9.676 284.887 8.374 284.985 7.282H282.507V13.078H281.555V6.372H285.013V4.944H281.247ZM285.783 1.878H290.179V2.816H280.659V6.022C280.659 8.192 280.365 11.16 278.461 13.078C278.307 12.882 277.915 12.518 277.705 12.378C278.839 11.216 279.315 9.746 279.525 8.318C278.895 8.696 278.251 9.06 277.677 9.382L277.313 8.43C277.943 8.178 278.755 7.73 279.623 7.282C279.651 6.834 279.665 6.414 279.665 6.008V1.878H284.579C284.439 1.43 284.271 0.897999 284.103 0.478L285.195 0.253999C285.405 0.771999 285.643 1.402 285.783 1.878ZM305.215 4.972V5.784H293.203V4.972H298.649V3.936H294.589V3.166H298.649V2.228H293.791V1.444H298.649V0.296H299.699V1.444H304.781V2.228H299.699V3.166H303.913V3.936H299.699V4.972H305.215ZM299.363 10.614H302.219C302.261 10.278 302.317 9.844 302.359 9.354H299.069C299.377 9.69 299.643 10.096 299.755 10.376L299.363 10.614ZM298.467 9.354H295.919C295.863 9.788 295.807 10.236 295.751 10.614H298.957C298.789 10.278 298.481 9.83 298.187 9.522L298.467 9.354ZM298.565 7.31H296.143C296.101 7.702 296.059 8.136 296.017 8.542H299.027C298.859 8.206 298.551 7.786 298.257 7.478L298.565 7.31ZM299.503 8.542H302.429C302.457 8.178 302.485 7.758 302.513 7.31H299.139C299.433 7.632 299.713 8.052 299.839 8.332L299.503 8.542ZM305.565 9.354H303.381C303.339 9.83 303.297 10.264 303.241 10.614H304.599V11.426H303.115C302.989 12.056 302.849 12.42 302.667 12.616C302.401 12.91 302.093 13.008 301.687 13.022C301.295 13.064 300.581 13.05 299.839 12.994C299.825 12.77 299.713 12.448 299.587 12.224C300.315 12.294 300.987 12.294 301.253 12.294C301.505 12.308 301.645 12.28 301.771 12.126C301.883 12.014 301.981 11.804 302.065 11.426H294.589C294.701 10.866 294.799 10.124 294.897 9.354H292.825V8.542H294.995C295.079 7.842 295.135 7.142 295.191 6.526H303.577C303.577 6.526 303.563 6.848 303.549 6.974C303.507 7.562 303.479 8.08 303.437 8.542H305.565V9.354ZM309.793 13.498L309.485 12.756C310.563 12.308 311.179 11.65 311.249 10.698C311.165 10.712 311.095 10.712 311.011 10.712C310.437 10.712 309.961 10.376 309.961 9.718C309.961 9.06 310.451 8.71 311.025 8.71C311.795 8.71 312.215 9.34 312.215 10.32C312.215 11.832 311.263 12.98 309.793 13.498ZM327.321 2.662L326.607 3.39C326.187 2.802 325.263 1.892 324.535 1.234L325.207 0.618C325.935 1.234 326.887 2.102 327.321 2.662ZM326.719 10.628L328.147 9.564C328.217 9.844 328.399 10.236 328.511 10.432C326.173 12.238 325.809 12.546 325.599 12.812C325.501 12.574 325.235 12.14 325.053 11.93C325.319 11.776 325.711 11.356 325.711 10.74V5.658H323.625V4.664H326.719V10.628ZM329.911 10.152H334.279V9.018H329.911V10.152ZM334.279 7.212H329.911V8.29H334.279V7.212ZM335.273 6.4V11.902C335.273 12.434 335.161 12.7 334.783 12.854C334.377 13.008 333.761 13.022 332.767 13.008C332.725 12.756 332.585 12.378 332.459 12.112C333.173 12.14 333.845 12.14 334.013 12.126C334.223 12.126 334.279 12.07 334.279 11.888V10.908H329.911V13.064H328.931V6.4H335.273ZM332.599 4.804H336.365V5.602H327.937V4.804H331.577V3.824H328.693V3.068H331.577V2.186H328.357V1.388H331.577V0.296H332.599V1.388H335.959V2.186H332.599V3.068H335.539V3.824H332.599V4.804ZM351.541 5.35H346.263C347.243 8.43 349.063 10.964 351.765 12.07C351.513 12.308 351.163 12.742 350.981 13.05C348.293 11.776 346.515 9.298 345.409 6.12C344.737 8.808 343.225 11.496 339.823 13.05C339.669 12.77 339.333 12.406 339.039 12.196C342.511 10.684 343.911 7.996 344.485 5.35H339.319V4.286H344.653C344.863 2.816 344.849 1.416 344.863 0.309999H345.983C345.969 1.43 345.955 2.816 345.759 4.286H351.541V5.35ZM356.021 2.494V4.398H355.013V1.528H360.263C360.109 1.178 359.927 0.814 359.745 0.505999L360.809 0.197999C361.061 0.589999 361.341 1.122 361.495 1.528H366.661V4.398H365.611V2.494H356.021ZM364.827 5.28L365.681 5.952C365.051 6.47 364.281 7.03 363.525 7.534C364.169 9.382 365.499 10.964 367.249 11.636C367.025 11.832 366.717 12.224 366.577 12.49C364.799 11.692 363.469 10.068 362.713 8.052C362.503 8.192 362.265 8.332 362.055 8.444C362.531 10.25 362.181 11.972 361.425 12.56C360.977 12.938 360.613 13.05 359.997 13.05C359.675 13.05 359.241 13.036 358.793 13.022C358.793 12.728 358.681 12.322 358.527 12.042C359.031 12.084 359.493 12.112 359.787 12.112C360.151 12.112 360.417 12.07 360.683 11.818C361.103 11.51 361.355 10.544 361.229 9.41C359.633 10.628 357.239 11.79 355.237 12.406C355.125 12.14 354.887 11.762 354.691 11.524C356.931 11.006 359.647 9.704 361.033 8.444C360.935 8.122 360.823 7.786 360.655 7.464C359.283 8.402 357.127 9.382 355.461 9.9C355.349 9.676 355.125 9.298 354.929 9.088C356.679 8.668 359.017 7.674 360.235 6.764C360.053 6.47 359.829 6.204 359.563 5.938C358.317 6.638 356.875 7.184 355.531 7.59C355.433 7.38 355.139 6.96 354.957 6.764C356.721 6.344 358.625 5.644 359.955 4.734H356.763V3.824H364.813V4.734H361.341C361.033 5 360.711 5.238 360.347 5.476C360.991 6.12 361.481 6.862 361.775 7.618C362.839 6.932 364.043 6.008 364.827 5.28ZM373.773 2.13L372.835 2.438C372.709 1.92 372.387 1.122 372.121 0.533999L373.017 0.267999C373.311 0.855999 373.633 1.626 373.773 2.13ZM372.499 5.378H375.411C375.411 5.378 375.411 5.714 375.397 5.854C375.299 10.432 375.201 11.972 374.851 12.462C374.627 12.756 374.389 12.868 374.025 12.91C373.675 12.952 373.115 12.952 372.527 12.91C372.499 12.63 372.401 12.224 372.247 11.944C372.821 12 373.339 12.014 373.563 12.014C373.745 12.014 373.871 11.972 373.969 11.818C374.207 11.51 374.305 10.166 374.389 6.33H372.499V6.428C372.499 8.724 372.219 11.09 370.371 13.064C370.189 12.84 369.853 12.56 369.601 12.392C371.295 10.586 371.505 8.388 371.505 6.414V3.516H369.853V2.55H376.027V3.516H372.499V5.378ZM380.549 3.852H377.931C377.903 3.894 377.889 3.95 377.875 3.992C378.169 5.63 378.589 7.128 379.205 8.402C379.863 7.142 380.283 5.644 380.549 3.852ZM382.607 3.852H381.585C381.235 6.106 380.661 7.94 379.793 9.452C380.549 10.642 381.501 11.58 382.733 12.154C382.495 12.364 382.173 12.756 382.005 13.05C380.829 12.434 379.891 11.524 379.163 10.39C378.323 11.496 377.231 12.392 375.845 13.106C375.747 12.868 375.439 12.42 375.243 12.196C376.699 11.524 377.791 10.6 378.603 9.424C378.029 8.29 377.595 6.974 377.245 5.532C376.951 6.176 376.601 6.75 376.237 7.268C376.069 7.072 375.663 6.666 375.425 6.484C376.559 5.014 377.329 2.676 377.763 0.282L378.813 0.449999C378.645 1.276 378.463 2.102 378.239 2.886H382.607V3.852ZM389.411 1.458L390.097 0.771999C391.399 1.668 393.065 2.984 393.863 3.866L393.121 4.636C392.351 3.768 390.727 2.396 389.411 1.458ZM395.221 5.224L396.187 4.846C396.999 6.512 397.769 8.654 398.063 10.096L397.041 10.502C396.761 9.06 396.005 6.862 395.221 5.224ZM386.527 5.21L387.535 5.406C387.311 7.044 386.877 9.41 386.303 10.894L385.267 10.46C385.869 9.032 386.331 6.848 386.527 5.21ZM388.753 4.16H389.803V11.062C389.803 11.706 389.971 11.832 390.769 11.832H393.443C394.311 11.832 394.437 11.342 394.549 8.934C394.801 9.13 395.235 9.312 395.529 9.396C395.375 12.042 395.053 12.812 393.499 12.812H390.685C389.173 12.812 388.753 12.434 388.753 11.048V4.16ZM403.901 0.253999L404.881 0.562C404.489 1.542 403.985 2.536 403.439 3.474V13.134H402.445V4.972C401.955 5.658 401.423 6.274 400.905 6.792C400.807 6.554 400.513 6.022 400.317 5.784C401.731 4.454 403.089 2.368 403.901 0.253999ZM405.875 7.114H408.353C408.367 6.904 408.367 6.694 408.367 6.484V5.042H405.875V7.114ZM411.965 5.042H409.389V6.484C409.389 6.694 409.389 6.904 409.375 7.114H411.965V5.042ZM412.959 7.996H409.319C409.207 8.962 408.955 9.872 408.395 10.684C409.795 11.454 411.559 11.93 413.547 12.168C413.323 12.392 413.071 12.798 412.931 13.106C410.957 12.812 409.207 12.266 407.779 11.412C407.079 12.098 406.071 12.686 404.615 13.12C404.503 12.896 404.209 12.462 403.985 12.266C405.357 11.916 406.295 11.426 406.939 10.852C406.113 10.222 405.427 9.466 404.909 8.57L405.777 8.29C406.197 9.018 406.799 9.634 407.541 10.152C407.989 9.494 408.199 8.766 408.297 7.996H404.909V4.16H408.367V2.788H404.503V1.836H408.367V0.337999H409.389V1.836H413.421V2.788H409.389V4.16H412.959V7.996ZM422.983 7.814H426.749V5.49H422.983V7.814ZM418.545 7.814H421.947V5.49H418.601V6.316C418.601 6.778 418.587 7.296 418.545 7.814ZM421.947 2.27H418.601V4.51H421.947V2.27ZM426.749 4.51V2.27H422.983V4.51H426.749ZM427.771 1.276V11.664C427.771 12.336 427.589 12.644 427.141 12.826C426.665 12.994 425.853 13.008 424.537 12.994C424.495 12.714 424.327 12.266 424.187 11.986C425.167 12.028 426.119 12.014 426.371 12.014C426.651 12 426.749 11.916 426.749 11.65V8.808H422.983V12.938H421.947V8.808H418.447C418.237 10.362 417.761 11.958 416.697 13.148C416.543 12.938 416.123 12.588 415.899 12.462C417.439 10.726 417.579 8.262 417.579 6.316V1.276H427.771ZM432.993 13.498L432.685 12.756C433.763 12.308 434.379 11.65 434.449 10.698C434.365 10.712 434.295 10.712 434.211 10.712C433.637 10.712 433.161 10.376 433.161 9.718C433.161 9.06 433.651 8.71 434.225 8.71C434.995 8.71 435.415 9.34 435.415 10.32C435.415 11.832 434.463 12.98 432.993 13.498ZM13.076 24.258H8.75C9.758 26.624 11.522 28.836 13.454 29.928C13.188 30.152 12.824 30.53 12.656 30.81C10.584 29.508 8.778 26.988 7.728 24.258H7.532V29.424H10.78V30.46H7.532V33.064H6.454V30.46H3.206V29.424H6.454V24.258H6.23C5.152 26.988 3.346 29.48 1.33 30.852C1.162 30.6 0.826 30.222 0.588 30.026C2.436 28.892 4.158 26.624 5.18 24.258H0.952V23.222H6.454V20.296H7.532V23.222H13.076V24.258ZM18.074 27.828H21.182L20.692 26.26C20.314 25.098 19.992 23.978 19.656 22.788H19.6C19.278 23.992 18.942 25.098 18.578 26.26L18.074 27.828ZM22.484 32L21.504 28.864H17.752L16.758 32H15.442L18.928 21.738H20.37L23.856 32H22.484ZM26.7039 32V21.738H29.6299C31.9399 21.738 33.4799 22.508 33.4799 24.748C33.4799 26.918 31.9399 27.926 29.6999 27.926H28.0059V32H26.7039ZM28.0059 26.876H29.5319C31.3379 26.876 32.1919 26.218 32.1919 24.748C32.1919 23.264 31.2819 22.788 29.4759 22.788H28.0059V26.876ZM36.9496 32V21.738H39.8756C42.1856 21.738 43.7256 22.508 43.7256 24.748C43.7256 26.918 42.1856 27.926 39.9456 27.926H38.2516V32H36.9496ZM38.2516 26.876H39.7776C41.5836 26.876 42.4376 26.218 42.4376 24.748C42.4376 23.264 41.5276 22.788 39.7216 22.788H38.2516V26.876ZM56.1833 31.482V29.27H49.3653V31.482H56.1833ZM56.1413 25.532L56.9113 25.924C56.3093 26.666 55.5113 27.534 54.7553 28.346H57.2473V33.036H56.1833V32.392H49.3653V33.064H48.3293V28.346H53.4393C53.9993 27.758 54.6013 27.1 55.1053 26.526H48.4693V25.588H55.9733L56.1413 25.532ZM51.4093 23.852L52.1373 23.292C52.8793 23.698 53.8033 24.328 54.2793 24.776L53.5233 25.378C53.0753 24.944 52.1513 24.286 51.4093 23.852ZM52.8093 20.24L53.7613 20.688C53.6493 20.856 53.5373 21.01 53.4113 21.15C54.7273 22.62 57.1073 24.02 59.3053 24.608C59.0673 24.832 58.7593 25.238 58.5913 25.532C56.4913 24.874 54.2933 23.446 52.8513 21.822C51.3533 23.488 49.2673 24.804 47.0553 25.63C46.9013 25.35 46.6073 24.972 46.3553 24.706C48.9733 23.866 51.4933 22.228 52.8093 20.24ZM71.6533 27.044V25.63H65.8153V27.044H71.6533ZM65.8153 29.41H71.6533V27.954H65.8153V29.41ZM74.3133 23.068H66.7813C66.5153 23.614 66.2353 24.174 65.9273 24.692H72.6753V31.762C72.6753 32.392 72.5353 32.7 72.0873 32.868C71.6253 33.036 70.8413 33.05 69.6513 33.05C69.6093 32.742 69.4553 32.322 69.3153 32.028C70.2393 32.07 71.0793 32.056 71.3313 32.056C71.5693 32.042 71.6533 31.972 71.6533 31.762V30.306H65.8153V33.064H64.7933V26.316C64.1213 27.156 63.3373 27.912 62.4553 28.528C62.3293 28.318 62.0073 27.926 61.7973 27.73C63.4773 26.596 64.7513 24.916 65.6473 23.068H62.1333V22.088H66.0813C66.3193 21.486 66.5293 20.884 66.6973 20.282L67.7333 20.534C67.5653 21.052 67.3973 21.584 67.1873 22.088H74.3133V23.068ZM89.7133 22.396V23.418H79.7173V26.4C79.7173 28.458 79.4793 31.328 78.0373 33.232C77.8553 33.008 77.4353 32.616 77.1833 32.476C78.4993 30.726 78.6253 28.262 78.6253 26.4V22.396H83.8333C83.6933 21.85 83.3993 21.08 83.1613 20.492L84.2113 20.268C84.5193 20.912 84.8413 21.738 84.9673 22.27L84.4773 22.396H89.7133ZM102.453 28.766H95.6633V31.44H102.453V28.766ZM94.6273 33.204V27.8H103.503V33.176H102.453V32.42H95.6633V33.204H94.6273ZM99.8493 25.448H105.141V26.428H92.9053V25.448H98.7713V23.25H95.3413C94.9213 23.964 94.4733 24.622 94.0113 25.126C93.8013 24.986 93.3393 24.706 93.0733 24.566C94.0953 23.572 94.9773 21.976 95.4953 20.422L96.5313 20.66C96.3353 21.22 96.0973 21.766 95.8453 22.298H98.7713V20.282H99.8493V22.298H104.105V23.25H99.8493V25.448ZM111.945 28.22V20.506H112.967V33.092H111.945V29.214C109.397 30.152 108.991 30.348 108.725 30.572C108.655 30.306 108.445 29.844 108.305 29.62C108.501 29.494 108.781 29.228 108.781 28.682V21.836H109.803V28.934L111.945 28.22ZM115.613 23.978L115.529 24.188C115.935 25.756 116.481 27.24 117.223 28.528C117.895 27.268 118.343 25.742 118.637 23.978H115.613ZM120.723 23.978H119.687C119.295 26.19 118.721 27.996 117.825 29.494C118.651 30.642 119.645 31.58 120.849 32.168C120.611 32.378 120.275 32.742 120.135 33.022C118.987 32.392 118.049 31.482 117.251 30.376C116.411 31.482 115.361 32.378 114.045 33.092C113.933 32.868 113.569 32.448 113.359 32.238C114.759 31.552 115.837 30.628 116.663 29.466C115.963 28.29 115.403 26.946 114.983 25.476C114.661 26.148 114.283 26.75 113.877 27.268C113.737 27.058 113.345 26.596 113.135 26.4C114.339 24.986 115.067 22.704 115.459 20.282L116.523 20.464C116.369 21.332 116.159 22.186 115.935 22.998H120.723V23.978ZM135.843 23.012V23.95H123.733V23.012H127.331C127.065 22.354 126.477 21.388 125.931 20.702L126.813 20.31C127.401 21.038 128.017 21.99 128.297 22.634L127.555 23.012H132.049L131.307 22.732C131.811 22.074 132.427 21.038 132.763 20.296L133.799 20.618C133.295 21.458 132.707 22.382 132.189 23.012H135.843ZM135.829 26.414L135.297 27.254C134.345 26.708 132.483 25.868 131.069 25.35L131.573 24.608C132.973 25.098 134.849 25.896 135.829 26.414ZM127.653 24.566L128.367 25.07C127.415 25.896 125.679 26.946 124.433 27.534C124.279 27.282 124.027 26.932 123.803 26.722C125.021 26.26 126.785 25.322 127.653 24.566ZM126.225 28.276V31.706H127.975V28.276H126.225ZM130.691 28.276H128.927V31.706H130.691V28.276ZM133.421 28.276H131.643V31.706H133.421V28.276ZM134.401 31.706H136.123V32.644H123.481V31.706H125.287V27.366H134.401V31.706ZM140.393 33.498L140.085 32.756C141.163 32.308 141.779 31.65 141.849 30.698C141.765 30.712 141.695 30.712 141.611 30.712C141.037 30.712 140.561 30.376 140.561 29.718C140.561 29.06 141.051 28.71 141.625 28.71C142.395 28.71 142.815 29.34 142.815 30.32C142.815 31.832 141.863 32.98 140.393 33.498ZM157.613 28.99V31.454H163.703V28.99H157.613ZM163.703 22.116H157.613V24.524H163.703V22.116ZM163.703 27.982V25.504H157.613V27.982H163.703ZM164.767 31.454H166.811V32.476H154.393V31.454H156.591V21.108H164.767V31.454ZM173.951 31.65H179.271C180.797 31.65 181.021 31.188 181.217 28.934C181.497 29.13 181.959 29.298 182.267 29.354C182.001 31.916 181.539 32.672 179.257 32.672H174.021C171.781 32.672 171.081 32.28 171.081 30.558V23.558H172.131V25.854H179.439V22.186H170.339V21.164H180.503V27.576H179.439V26.876H172.131V30.572C172.131 31.454 172.439 31.65 173.951 31.65ZM191.591 23.936H188.581C187.993 25.77 187.083 27.17 185.683 28.15C185.543 27.982 185.137 27.618 184.913 27.464C186.705 26.316 187.643 24.426 188.049 21.864H185.557V20.982H194.895C194.713 21.766 194.503 22.69 194.293 23.46H197.079C197.079 23.46 197.065 23.74 197.037 23.88C196.827 26.064 196.645 26.974 196.267 27.31C196.043 27.562 195.777 27.632 195.371 27.66C195.021 27.688 194.363 27.688 193.677 27.646C193.649 27.366 193.523 27.002 193.369 26.75C194.041 26.806 194.713 26.82 194.965 26.82C195.203 26.82 195.343 26.806 195.469 26.694C195.693 26.498 195.861 25.854 196.001 24.328H193.061C193.271 23.67 193.509 22.746 193.691 21.864H189.071C188.987 22.284 188.903 22.704 188.819 23.096H191.983L192.137 23.068L192.697 23.264C192.431 24.328 192.039 25.182 191.507 25.854C192.095 26.26 192.627 26.666 192.991 27.03L192.361 27.674C192.011 27.296 191.521 26.904 190.947 26.484C190.289 27.142 189.477 27.576 188.581 27.884C188.483 27.674 188.175 27.31 187.979 27.17C188.833 26.904 189.575 26.526 190.191 25.994C189.645 25.672 189.085 25.364 188.539 25.126L189.155 24.566C189.673 24.79 190.233 25.07 190.765 25.392C191.115 24.986 191.381 24.496 191.591 23.936ZM187.629 29.158V31.748H189.477V29.158H187.629ZM192.291 29.158H190.443V31.748H192.291V29.158ZM195.147 29.158H193.257V31.748H195.147V29.158ZM196.155 31.748H197.723V32.672H185.081V31.748H186.649V28.304H196.155V31.748ZM204.569 21.906V24.482H207.439V25.448H204.569V25.826C205.241 26.456 206.851 28.066 207.271 28.486L206.655 29.34C206.235 28.808 205.297 27.786 204.569 27.002V33.05H203.533V27.044C202.805 28.64 201.825 30.194 200.887 31.146C200.761 30.866 200.495 30.432 200.313 30.166C201.433 29.116 202.651 27.198 203.323 25.448H200.593V24.482H203.533V22.102C202.623 22.284 201.713 22.424 200.845 22.55C200.803 22.298 200.649 21.948 200.523 21.724C202.581 21.416 204.989 20.94 206.305 20.366L207.075 21.164C206.389 21.43 205.507 21.682 204.569 21.906ZM209.553 21.948V29.62H208.531V21.948H209.553ZM211.499 20.45H212.521V31.622C212.521 32.336 212.325 32.644 211.891 32.812C211.443 32.994 210.673 33.022 209.399 33.022C209.329 32.742 209.175 32.252 209.021 31.972C209.987 32 210.869 31.986 211.135 31.986C211.387 31.972 211.499 31.902 211.499 31.622V20.45ZM217.393 33.498L217.085 32.756C218.163 32.308 218.779 31.65 218.849 30.698C218.765 30.712 218.695 30.712 218.611 30.712C218.037 30.712 217.561 30.376 217.561 29.718C217.561 29.06 218.051 28.71 218.625 28.71C219.395 28.71 219.815 29.34 219.815 30.32C219.815 31.832 218.863 32.98 217.393 33.498ZM232.975 22.872V24.706H231.939V21.906H237.063C236.867 21.472 236.615 20.94 236.405 20.52L237.469 20.268C237.749 20.786 238.071 21.43 238.281 21.906H243.251V24.706H242.173V22.872H232.975ZM239.779 26.708H236.041C235.663 27.324 235.285 27.912 234.935 28.416C235.901 28.724 236.937 29.102 237.945 29.494C238.729 28.752 239.359 27.828 239.779 26.708ZM243.629 26.708H240.969C240.479 28.01 239.807 29.06 238.967 29.9C240.689 30.628 242.271 31.398 243.335 32.084L242.481 32.98C241.459 32.28 239.849 31.454 238.085 30.684C236.601 31.832 234.725 32.532 232.443 33.036C232.331 32.77 232.009 32.322 231.785 32.084C233.899 31.72 235.649 31.146 237.007 30.222C235.747 29.718 234.473 29.242 233.311 28.878L233.325 28.864C233.787 28.276 234.305 27.52 234.809 26.708H231.589V25.714H235.397C235.817 24.944 236.223 24.16 236.503 23.46L237.623 23.698C237.343 24.328 236.993 25.028 236.615 25.714H243.629V26.708ZM254.731 25.336V23.124H251.399V22.2H254.731V20.282H255.753V22.2H259.043V23.124H255.753V25.336H258.777V26.26H251.819V25.336H254.731ZM249.355 22.494L248.697 23.152C248.347 22.704 247.605 22.074 246.989 21.654L247.619 21.066C248.235 21.458 248.991 22.046 249.355 22.494ZM249.817 26.834V24.762C248.781 25.238 247.759 25.728 246.905 26.092L246.555 25.224C247.395 24.902 248.599 24.342 249.817 23.796V20.282H250.797V26.834H249.817ZM257.713 28.78L258.469 29.326C257.741 29.83 256.789 30.348 255.977 30.726C256.915 31.384 258.091 31.86 259.407 32.126C259.183 32.322 258.917 32.7 258.805 32.98C256.061 32.308 254.045 30.81 252.925 28.528C252.323 29.074 251.553 29.592 250.685 30.026V31.832L254.087 31.118C254.059 31.37 254.031 31.762 254.045 31.972C250.069 32.84 249.579 32.98 249.299 33.134C249.257 32.91 249.075 32.49 248.935 32.294C249.215 32.21 249.663 31.986 249.663 31.426V30.502C248.837 30.852 247.969 31.118 247.143 31.314C247.017 31.076 246.751 30.74 246.569 30.544C248.333 30.194 250.307 29.452 251.595 28.528H246.751V27.674H252.631C252.491 27.366 252.309 27.016 252.141 26.75L253.149 26.47C253.401 26.834 253.639 27.296 253.793 27.674H259.239V28.528H253.919C254.297 29.158 254.759 29.732 255.319 30.222C256.131 29.802 257.111 29.214 257.713 28.78ZM274.471 24.258H270.145C271.153 26.624 272.917 28.836 274.849 29.928C274.583 30.152 274.219 30.53 274.051 30.81C271.979 29.508 270.173 26.988 269.123 24.258H268.927V29.424H272.175V30.46H268.927V33.064H267.849V30.46H264.601V29.424H267.849V24.258H267.625C266.547 26.988 264.741 29.48 262.725 30.852C262.557 30.6 262.221 30.222 261.983 30.026C263.831 28.892 265.553 26.624 266.575 24.258H262.347V23.222H267.849V20.296H268.927V23.222H274.471V24.258ZM279.469 27.828H282.577L282.087 26.26C281.709 25.098 281.387 23.978 281.051 22.788H280.995C280.673 23.992 280.337 25.098 279.973 26.26L279.469 27.828ZM283.879 32L282.899 28.864H279.147L278.153 32H276.837L280.323 21.738H281.765L285.251 32H283.879ZM288.099 32V21.738H291.025C293.335 21.738 294.875 22.508 294.875 24.748C294.875 26.918 293.335 27.926 291.095 27.926H289.401V32H288.099ZM289.401 26.876H290.927C292.733 26.876 293.587 26.218 293.587 24.748C293.587 23.264 292.677 22.788 290.871 22.788H289.401V26.876ZM298.345 32V21.738H301.271C303.581 21.738 305.121 22.508 305.121 24.748C305.121 26.918 303.581 27.926 301.341 27.926H299.647V32H298.345ZM299.647 26.876H301.173C302.979 26.876 303.833 26.218 303.833 24.748C303.833 23.264 302.923 22.788 301.117 22.788H299.647V26.876ZM320.169 22.312H315.731C315.423 22.83 315.087 23.334 314.737 23.852V33.036H313.631V25.252C312.217 26.862 310.509 28.304 308.563 29.326C308.409 29.06 308.073 28.654 307.863 28.416C310.621 27.03 313.015 24.706 314.401 22.312H308.213V21.276H320.169V22.312ZM315.017 25.322L315.787 24.65C317.411 25.7 319.539 27.268 320.561 28.332L319.735 29.13C318.741 28.066 316.669 26.414 315.017 25.322ZM323.893 28.29V27.282H335.387V28.29H329.283C328.415 29.438 327.435 30.572 326.427 31.468L332.783 30.992C332.279 30.404 331.691 29.802 331.159 29.312L332.041 28.836C333.287 29.956 334.603 31.44 335.219 32.49L334.295 33.064C334.099 32.728 333.833 32.322 333.525 31.916C326.133 32.518 325.349 32.574 324.831 32.77C324.761 32.546 324.593 32 324.481 31.692C324.775 31.636 325.097 31.37 325.517 30.964C325.909 30.642 326.959 29.536 327.869 28.29H323.893ZM329.647 20.296L330.641 20.73C330.501 20.912 330.361 21.108 330.235 21.29C331.509 22.592 333.777 24.132 336.031 24.902C335.793 25.112 335.471 25.532 335.303 25.826C333.133 24.944 330.949 23.334 329.633 21.99C328.765 22.942 327.687 23.838 326.483 24.608H332.951V25.574H326.301V24.72C325.573 25.182 324.803 25.602 323.991 25.966C323.837 25.714 323.473 25.28 323.235 25.084C325.951 23.922 328.401 22.172 329.647 20.296ZM343.479 21.85L344.151 22.074C343.829 24.244 343.269 26.134 342.513 27.744C343.185 28.738 343.745 29.676 344.123 30.404L343.325 31.174C343.003 30.502 342.527 29.69 341.981 28.794C341.197 30.194 340.245 31.3 339.223 32.098C339.055 31.832 338.733 31.454 338.481 31.272C339.545 30.516 340.539 29.298 341.337 27.786C340.553 26.596 339.671 25.336 338.873 24.3L339.587 23.684C340.301 24.622 341.099 25.686 341.827 26.736C342.345 25.56 342.751 24.23 343.003 22.83H338.761V21.892H343.297L343.479 21.85ZM351.375 23.362V24.37H349.695V31.664C349.695 32.322 349.527 32.644 349.107 32.812C348.687 32.994 347.987 33.022 346.797 33.022C346.755 32.742 346.601 32.266 346.447 31.972C347.329 32 348.113 32 348.337 31.986C348.575 31.986 348.673 31.916 348.673 31.664V24.37H344.683V23.362H348.673V20.324H349.695V23.362H351.375ZM347.581 29.172L346.657 29.634C346.433 28.71 345.733 27.282 345.019 26.218L345.873 25.826C346.601 26.862 347.329 28.262 347.581 29.172ZM365.221 22.508H359.957C359.523 23.236 359.019 23.88 358.501 24.384C358.333 24.202 357.941 23.88 357.717 23.726C358.669 22.9 359.481 21.626 359.943 20.31L360.909 20.548C360.769 20.898 360.615 21.248 360.447 21.598H365.683L365.851 21.556L366.565 21.752C366.201 22.55 365.781 23.502 365.431 24.062L364.549 23.88C364.745 23.53 364.997 23.012 365.221 22.508ZM363.779 24.496L364.619 24.104C365.333 24.944 366.061 26.106 366.383 26.876L365.487 27.338C365.179 26.554 364.465 25.364 363.779 24.496ZM362.029 30.306L361.161 30.81C360.811 30.138 359.943 29.102 359.187 28.36L359.985 27.898C360.755 28.612 361.637 29.62 362.029 30.306ZM359.929 24.132L360.881 24.398C360.419 25.504 359.691 26.61 358.963 27.324C358.781 27.156 358.403 26.876 358.179 26.736C358.907 26.078 359.551 25.098 359.929 24.132ZM363.009 22.984V27.086C363.009 27.604 362.911 27.856 362.519 28.01C362.155 28.178 361.595 28.178 360.713 28.178C360.657 27.898 360.503 27.534 360.377 27.268C361.035 27.282 361.609 27.282 361.777 27.268C361.959 27.268 362.001 27.226 362.001 27.072V22.984H363.009ZM355.085 32.504L354.105 32.056C354.665 31.23 355.211 29.956 355.519 29.046L356.457 29.424C356.093 30.334 355.603 31.65 355.085 32.504ZM357.269 20.254L358.193 20.562C357.857 21.248 357.423 21.92 356.961 22.564V28.248H355.953V23.81C355.519 24.3 355.057 24.748 354.609 25.126C354.469 24.93 354.133 24.51 353.923 24.314C355.211 23.348 356.471 21.808 357.269 20.254ZM359.215 31.846H362.435C363.205 31.846 363.331 31.636 363.401 30.222C363.639 30.404 364.073 30.558 364.367 30.614C364.227 32.378 363.891 32.812 362.505 32.812H359.159C357.521 32.812 357.087 32.518 357.087 31.384V28.962H358.123V31.37C358.123 31.776 358.291 31.846 359.215 31.846ZM364.115 29.144L365.025 28.794C365.683 29.788 366.341 31.076 366.579 31.93L365.585 32.336C365.389 31.482 364.745 30.138 364.115 29.144ZM373.943 26.386V23.46H371.003V26.386H373.943ZM371.003 30.67H373.943V27.31H371.003V30.67ZM372.179 20.254L373.299 20.464C373.061 21.15 372.809 21.92 372.571 22.522H374.895V31.608H371.003V32.714H370.051V22.522H371.619C371.829 21.85 372.081 20.912 372.179 20.254ZM381.741 22.48V23.012C381.517 29.396 381.335 31.552 380.775 32.238C380.467 32.63 380.145 32.756 379.669 32.798C379.179 32.854 378.381 32.826 377.597 32.784C377.569 32.476 377.443 32.056 377.247 31.762C378.157 31.846 378.997 31.846 379.319 31.846C379.599 31.846 379.753 31.818 379.893 31.636C380.355 31.146 380.565 29.018 380.747 23.446H377.191C376.799 24.384 376.365 25.238 375.875 25.896C375.693 25.728 375.245 25.448 375.021 25.308C375.959 24.076 376.715 22.144 377.163 20.226L378.157 20.464C377.989 21.15 377.793 21.822 377.555 22.48H381.741ZM379.529 28.78L378.647 29.326C378.227 28.486 377.289 27.1 376.519 26.092L377.331 25.616C378.115 26.61 379.081 27.954 379.529 28.78ZM397.477 27.492V28.514H391.737V31.622C391.737 32.364 391.513 32.672 390.995 32.84C390.477 33.008 389.581 33.036 388.111 33.022C388.027 32.728 387.831 32.266 387.663 31.986C388.839 32.028 389.931 32.014 390.253 32C390.561 32 390.687 31.902 390.687 31.608V28.514H384.933V27.492H390.687V25.224H385.871V24.23H390.687V22.074C389.147 22.242 387.565 22.34 386.123 22.41C386.081 22.13 385.955 21.724 385.857 21.486C389.161 21.332 393.221 20.968 395.321 20.31L396.105 21.136C394.915 21.5 393.389 21.766 391.737 21.962V24.23H396.693V25.224H391.737V27.492H397.477ZM405.779 27.058L405.177 28.052C404.883 27.534 404.239 26.554 403.721 25.784V33.064H402.699V26.274C402.153 27.828 401.453 29.354 400.711 30.292C400.585 29.998 400.319 29.62 400.151 29.382C401.103 28.136 402.097 25.91 402.573 23.978H400.361V22.984H402.699V20.296H403.721V22.984H405.667V23.978H403.721V24.44C404.197 24.972 405.485 26.666 405.779 27.058ZM411.393 31.944H411.771C411.869 31.944 411.967 31.916 412.037 31.846C412.107 31.762 412.135 31.636 412.177 31.314C412.191 30.992 412.219 30.264 412.219 29.326C412.429 29.522 412.751 29.676 413.017 29.774C413.017 30.558 412.975 31.594 412.905 31.944C412.835 32.35 412.723 32.56 412.541 32.714C412.345 32.854 412.079 32.91 411.813 32.91H411.127C410.861 32.91 410.567 32.826 410.343 32.63C410.119 32.434 410.049 32.196 410.049 30.978V22.074H407.487V25.56C407.487 27.856 407.193 31.034 405.191 33.106C405.037 32.896 404.617 32.532 404.379 32.406C406.269 30.46 406.451 27.688 406.451 25.546V21.08H411.071V31.076C411.071 31.538 411.099 31.804 411.155 31.86C411.225 31.916 411.295 31.944 411.393 31.944ZM423.307 22.956H421.123C420.829 23.502 420.493 24.006 420.143 24.412C419.961 24.258 419.499 24.02 419.275 23.908C420.073 23.068 420.745 21.766 421.123 20.478L422.089 20.702C421.949 21.15 421.767 21.612 421.585 22.046H423.307V20.31H424.329V22.046H427.605V22.956H424.329V24.734H428.207V25.644H419.289V24.734H423.307V22.956ZM421.375 27.646V29.816H426.107V27.646H421.375ZM427.129 30.684H420.395V26.778H427.129V30.684ZM418.925 23.04L418.113 23.656C417.707 23.04 416.783 22.074 416.013 21.402L416.783 20.856C417.553 21.5 418.491 22.424 418.925 23.04ZM418.533 25.616V30.67C418.813 30.782 419.079 31.034 419.569 31.314C420.423 31.79 421.627 31.874 423.111 31.874C424.749 31.874 427.045 31.776 428.515 31.594C428.389 31.874 428.221 32.364 428.207 32.672C426.989 32.742 424.539 32.812 423.083 32.812C421.459 32.812 420.297 32.686 419.401 32.182C418.883 31.874 418.477 31.51 418.197 31.51C417.735 31.51 417.035 32.182 416.349 32.966L415.691 32.056C416.307 31.496 416.951 30.992 417.525 30.768V26.596H415.705V25.616H418.533ZM439.771 20.982L440.387 20.352C441.255 20.786 442.347 21.458 442.893 21.948L442.249 22.662C441.717 22.172 440.653 21.458 439.771 20.982ZM441.759 24.762L442.809 25.028C442.207 26.834 441.381 28.43 440.345 29.76C440.863 31.132 441.507 31.93 442.221 31.93C442.613 31.93 442.781 31.202 442.879 29.34C443.117 29.578 443.495 29.816 443.775 29.9C443.579 32.28 443.201 32.966 442.137 32.966C441.059 32.966 440.219 32.112 439.575 30.67C438.735 31.58 437.769 32.364 436.691 32.994C436.537 32.784 436.173 32.364 435.935 32.168C437.181 31.496 438.259 30.628 439.155 29.578C438.651 27.996 438.315 25.938 438.133 23.684H433.303V25.504H436.873V25.952C436.803 29.088 436.719 30.264 436.425 30.628C436.215 30.894 435.977 30.992 435.585 31.034C435.235 31.062 434.605 31.062 433.919 31.034C433.905 30.712 433.793 30.32 433.625 30.054C434.269 30.11 434.871 30.124 435.109 30.124C435.305 30.124 435.445 30.096 435.529 29.97C435.725 29.76 435.795 28.878 435.851 26.47H433.303V26.582C433.303 28.542 433.093 31.356 431.833 33.176C431.651 32.966 431.203 32.602 430.965 32.476C432.113 30.768 432.239 28.374 432.239 26.568V22.662H438.077C438.021 21.892 438.007 21.108 437.993 20.31H439.071C439.071 21.122 439.085 21.906 439.127 22.662H443.649V23.684H439.197C439.337 25.546 439.589 27.212 439.967 28.542C440.723 27.436 441.325 26.176 441.759 24.762ZM449.935 20.296L450.943 20.604C450.523 21.626 450.033 22.62 449.459 23.572V33.078H448.437V25.112C447.919 25.812 447.359 26.456 446.785 27.002C446.687 26.75 446.365 26.218 446.141 25.966C447.667 24.608 449.081 22.466 449.935 20.296ZM459.175 27.24H455.227V31.538H458.965V32.546H450.593V31.538H454.191V27.24H450.061V26.232H454.191V22.536C453.071 22.732 451.909 22.9 450.845 23.026C450.803 22.774 450.635 22.382 450.523 22.144C453.113 21.808 456.137 21.248 457.845 20.632L458.615 21.5C457.663 21.808 456.487 22.102 455.227 22.354V26.232H459.175V27.24ZM464.957 20.296L465.923 20.604C465.573 21.542 465.153 22.508 464.677 23.418V33.05H463.655V25.126C463.249 25.77 462.801 26.33 462.353 26.82C462.255 26.582 461.947 26.036 461.779 25.812C463.053 24.454 464.243 22.382 464.957 20.296ZM469.759 25.532H467.351V28.486H469.759V25.532ZM470.725 29.41H467.351V30.376H466.357V24.608H470.725V29.41ZM474.617 21.64V22.648H473.595V31.636C473.595 32.378 473.399 32.686 472.909 32.854C472.391 33.022 471.467 33.05 470.109 33.05C470.067 32.756 469.885 32.28 469.731 31.986C470.851 32.028 471.873 32.014 472.181 32C472.475 31.986 472.573 31.916 472.573 31.636V22.648H465.951V21.64H474.617ZM487.567 23.418V21.612H483.675V23.418H487.567ZM488.617 20.814V24.216H482.667V20.814H488.617ZM483.283 26.092V30.278H482.289V25.238H489.079V30.236H488.057V26.092H483.283ZM481.589 26.47L481.729 27.408C481.155 27.604 480.581 27.786 480.007 27.968V31.748C480.007 32.35 479.881 32.644 479.517 32.826C479.167 32.994 478.621 33.036 477.697 33.022C477.655 32.742 477.515 32.294 477.375 31.986C477.991 32.014 478.565 32.014 478.719 32C478.901 32 478.985 31.944 478.985 31.734V28.304C478.355 28.5 477.767 28.696 477.249 28.864L477.039 27.856C477.585 27.716 478.257 27.52 478.985 27.282V24.062H477.221V23.096H478.985V20.296H480.007V23.096H481.603V24.062H480.007V26.974C480.525 26.82 481.071 26.638 481.589 26.47ZM486.167 27.072V28.444C486.167 29.9 485.663 31.748 481.715 32.994C481.589 32.742 481.295 32.336 481.071 32.126C484.837 31.09 485.145 29.536 485.145 28.416V27.072H486.167ZM486.167 30.936L486.783 30.278C487.833 30.908 489.303 31.804 490.045 32.364L489.401 33.134C488.673 32.546 487.231 31.608 486.167 30.936ZM494.217 22.55V24.09H493.195V21.612H498.613C498.445 21.248 498.235 20.8 498.039 20.45L499.033 20.212C499.285 20.618 499.593 21.192 499.775 21.612H504.787V24.09H503.751V22.55H494.217ZM502.407 31.72V29.942H495.715V31.72H502.407ZM505.039 28.192H499.537V29.088H503.457V33.022H502.407V32.574H495.715V33.078H494.693V29.088H498.487V28.192H492.971V27.324H498.487V26.358H494.259V25.546H498.487V24.608H494.763V23.768H498.487V22.858H499.537V23.768H503.275V24.608H499.537V25.546H503.835V26.358H499.537V27.324H505.039V28.192Z" fill="white"/>
</svg>
